<svg clip-rule="evenodd" fill-rule="evenodd" stroke-linejoin="round" stroke-miterlimit="2" viewBox="0 0 431 105" xmlns="http://www.w3.org/2000/svg"><g transform="matrix(.254623 0 0 .254623 -126.3023 -84.0483)"><path d="m906.336 330.089h-410.299v410.299h410.299zm-184.867 117.91v174.48h123.407v-32.257h-85.041v-142.223zm-163.972 0v174.48h75.266c13.359 0 24.966-2.24 34.822-6.72 9.857-4.481 18.084-10.63 24.682-18.45s11.526-17.106 14.784-27.858c3.258-10.753 4.888-22.482 4.888-35.19 0-14.499-1.996-27.125-5.988-37.877-3.991-10.752-9.53-19.712-16.617-26.881-7.086-7.168-15.476-12.544-25.17-16.128-9.693-3.584-20.16-5.376-31.401-5.376zm38.366 142.223v-109.966h27.369c9.449 0 17.391 1.344 23.826 4.032s11.608 6.557 15.518 11.607c3.91 5.051 6.72 11.119 8.431 18.206 1.71 7.087 2.566 15.029 2.566 23.826 0 9.612-1.222 17.757-3.666 24.437-2.444 6.679-5.702 12.096-9.775 16.25-4.073 4.155-8.716 7.128-13.929 8.92s-10.589 2.688-16.128 2.688z" fill="#1f70b8"/><g fill-rule="nonzero"><path d="m.226-.132v-.45h.112c.039 0 .071.006.098.016.026.011.047.027.063.048s.028.046.035.074c.007.029.01.062.01.098 0 .039-.005.073-.015.1s-.023.049-.04.066-.036.03-.057.037-.043.011-.066.011zm-.157-.582v.714h.308c.055 0 .102-.009.143-.028.04-.018.074-.043.101-.075s.047-.07.06-.114.02-.092.02-.144c0-.059-.008-.111-.024-.155-.017-.044-.039-.081-.068-.11s-.064-.051-.103-.066c-.04-.015-.083-.022-.129-.022z" transform="matrix(162.339563755 0 0 162.339563755 994.84245994 508.53301439)"/><path d="m.2-.597v-.117h-.142v.117zm-.142.08v.517h.142v-.517z" transform="matrix(162.339563755 0 0 162.339563755 1110.26669724 508.53301439)"/><path d="m.295-.122c-.022 0-.04-.005-.055-.014s-.026-.021-.035-.036-.016-.031-.019-.05c-.004-.018-.006-.036-.006-.055s.002-.038.007-.056c.004-.017.011-.033.021-.047.009-.013.021-.024.036-.032.014-.008.031-.012.051-.012.023 0 .043.004.058.013s.028.02.037.035.016.031.02.05.006.04.006.061c0 .019-.002.036-.007.053s-.013.033-.023.046-.023.024-.038.032-.033.012-.053.012zm.256.089v-.484h-.135v.069h-.002c-.017-.03-.039-.051-.064-.064-.026-.013-.056-.019-.09-.019-.036 0-.068.007-.095.021-.028.014-.051.033-.07.056-.019.024-.033.051-.042.082-.01.031-.015.064-.015.097 0 .035.004.069.013.1.008.032.021.06.039.083.018.024.041.043.069.056.028.014.061.021.1.021.031 0 .061-.007.09-.02.028-.013.05-.033.065-.06h.002v.068c.001.037-.008.067-.026.091-.019.024-.048.036-.088.036-.025 0-.048-.005-.067-.015-.019-.011-.032-.029-.039-.056h-.141c.002.029.01.055.025.076.014.021.032.038.054.051.021.013.045.023.072.03.026.006.052.009.077.009.059 0 .107-.008.142-.024s.062-.036.081-.058c.019-.023.031-.048.037-.075.005-.027.008-.05.008-.071z" transform="matrix(162.339563755 0 0 162.339563755 1147.27951366 508.53301439)"/><path d="m.2-.597v-.117h-.142v.117zm-.142.08v.517h.142v-.517z" transform="matrix(162.339563755 0 0 162.339563755 1241.60011903 508.53301439)"/><path d="m.234-.517v-.155h-.142v.155h-.086v.095h.086v.305c0 .026.004.047.013.063s.021.028.036.037.032.014.052.018c.019.003.04.004.062.004.014 0 .028 0 .043-.001s.028-.002.04-.004v-.11c-.007.001-.014.002-.021.003s-.015.001-.023.001c-.024 0-.04-.004-.048-.012s-.012-.024-.012-.048v-.256h.104v-.095z" transform="matrix(162.339563755 0 0 162.339563755 1281.8594651 508.53301439)"/><path d="m.048-.358c.002-.033.01-.061.025-.083s.033-.04.056-.053.048-.023.077-.029c.028-.005.056-.008.085-.008.026 0 .052.002.079.005.027.004.051.011.073.022s.04.026.054.044c.014.02.021.045.021.076v.269c0 .023.001.046.004.067s.007.037.014.048h-.144c-.003-.008-.005-.016-.006-.025-.002-.008-.003-.016-.004-.025-.023.023-.049.04-.08.049s-.062.014-.094.014c-.025 0-.048-.003-.069-.009s-.04-.015-.056-.028-.028-.029-.037-.048-.014-.042-.014-.069c0-.029.005-.054.016-.073.01-.019.023-.034.04-.045.016-.011.035-.02.056-.026.021-.005.042-.01.063-.013s.042-.006.063-.008.039-.005.055-.009.029-.01.038-.018c.009-.007.014-.018.013-.033 0-.015-.002-.028-.007-.037s-.012-.016-.02-.021c-.009-.004-.018-.008-.029-.01-.011-.001-.023-.002-.036-.002-.028 0-.05.006-.066.018s-.025.032-.028.06zm.328.105c-.006.005-.013.01-.022.012-.009.003-.019.006-.029.008-.011.002-.022.004-.033.005s-.023.003-.034.005-.021.005-.031.008c-.011.003-.02.008-.027.013-.008.006-.014.013-.019.022s-.007.02-.007.033.002.023.007.032.011.016.019.02c.008.005.017.009.028.011s.022.003.033.003c.028 0 .05-.005.065-.014s.027-.021.034-.034c.007-.012.012-.026.014-.039.001-.013.002-.024.002-.032z" transform="matrix(162.339563755 0 0 162.339563755 1339.00314376 508.53301439)"/><path d="m1439.97810981779 392.62256586893h23.05221805321v115.91044852107h-23.05221805321z" stroke-width="162.339563755"/><path d="m.069-.714v.714h.505v-.132h-.348v-.582z" transform="matrix(162.339563755 0 0 162.339563755 1517.57654497 508.53301439)"/><path d="m.048-.358c.002-.033.01-.061.025-.083s.033-.04.056-.053.048-.023.077-.029c.028-.005.056-.008.085-.008.026 0 .052.002.079.005.027.004.051.011.073.022s.04.026.054.044c.014.02.021.045.021.076v.269c0 .023.001.046.004.067s.007.037.014.048h-.144c-.003-.008-.005-.016-.006-.025-.002-.008-.003-.016-.004-.025-.023.023-.049.04-.08.049s-.062.014-.094.014c-.025 0-.048-.003-.069-.009s-.04-.015-.056-.028-.028-.029-.037-.048-.014-.042-.014-.069c0-.029.005-.054.016-.073.01-.019.023-.034.04-.045.016-.011.035-.02.056-.026.021-.005.042-.01.063-.013s.042-.006.063-.008.039-.005.055-.009.029-.01.038-.018c.009-.007.014-.018.013-.033 0-.015-.002-.028-.007-.037s-.012-.016-.02-.021c-.009-.004-.018-.008-.029-.01-.011-.001-.023-.002-.036-.002-.028 0-.05.006-.066.018s-.025.032-.028.06zm.328.105c-.006.005-.013.01-.022.012-.009.003-.019.006-.029.008-.011.002-.022.004-.033.005s-.023.003-.034.005-.021.005-.031.008c-.011.003-.02.008-.027.013-.008.006-.014.013-.019.022s-.007.02-.007.033.002.023.007.032.011.016.019.02c.008.005.017.009.028.011s.022.003.033.003c.028 0 .05-.005.065-.014s.027-.021.034-.034c.007-.012.012-.026.014-.039.001-.013.002-.024.002-.032z" transform="matrix(162.339563755 0 0 162.339563755 1613.84268972 508.53301439)"/><path d="m.054-.517v.517h.142v-.271c0-.053.009-.091.026-.114.017-.022.045-.034.084-.034.034 0 .058.01.071.031s.02.053.02.096v.292h.142v-.318c0-.032-.003-.061-.008-.088-.006-.026-.016-.048-.03-.067-.014-.018-.033-.032-.057-.043-.025-.01-.056-.015-.094-.015-.03 0-.059.007-.088.02-.029.014-.052.036-.07.066h-.003v-.072z" transform="matrix(162.339563755 0 0 162.339563755 1705.40433949 508.53301439)"/><path d="m.421-.26c0 .021-.002.042-.006.062s-.011.038-.02.053c-.009.016-.022.029-.037.038-.016.009-.036.014-.059.014-.022 0-.041-.005-.056-.015-.016-.009-.029-.022-.039-.038-.011-.015-.018-.033-.023-.053s-.007-.04-.007-.06c0-.021.002-.042.007-.062.004-.019.011-.037.021-.052.009-.015.022-.028.038-.037s.036-.014.059-.014.043.005.058.014.028.021.038.036c.009.015.016.033.02.052.004.02.006.041.006.062zm.002.194v.066h.135v-.714h-.142v.26h-.002c-.016-.025-.038-.045-.065-.058-.028-.013-.057-.019-.088-.019-.038 0-.071.007-.1.022s-.052.035-.071.06c-.02.025-.034.053-.043.085-.01.033-.015.066-.015.101 0 .036.005.071.015.104.009.033.023.063.043.088.019.026.043.047.072.061.029.016.063.023.102.023.034 0 .065-.006.092-.019.027-.012.048-.032.065-.06z" transform="matrix(162.339563755 0 0 162.339563755 1793.55297091 508.53301439)"/><path d="m.558-.487c-.005-.021-.013-.04-.022-.057s-.021-.032-.036-.045-.032-.023-.051-.03c-.02-.007-.043-.01-.069-.01-.038 0-.071.008-.098.023-.028.015-.051.036-.068.061-.017.026-.03.055-.038.088-.009.033-.013.066-.013.1s.004.067.013.1c.008.033.021.062.038.087.017.026.04.047.068.062.027.015.06.023.098.023.028 0 .053-.005.074-.015.021-.009.04-.023.055-.04s.027-.036.036-.059.014-.047.017-.073h.122c-.003.043-.012.082-.027.117-.016.035-.037.066-.064.091-.027.026-.058.046-.094.06s-.076.021-.119.021c-.053 0-.101-.01-.143-.03-.043-.019-.079-.046-.108-.08s-.052-.074-.067-.119c-.016-.045-.024-.094-.024-.145s.008-.099.024-.144c.015-.045.038-.085.067-.119s.065-.061.108-.081c.042-.02.09-.03.143-.03.04 0 .078.006.113.016.035.011.067.027.094.048s.048.047.065.077.027.064.031.103z" transform="matrix(162.339563755 0 0 162.339563755 994.84245994 675.58064074)"/><path d="m.297.014c-.041 0-.078-.007-.11-.021-.033-.013-.06-.032-.082-.056-.023-.024-.04-.053-.051-.086-.012-.033-.018-.07-.018-.11 0-.039.006-.076.018-.109.011-.033.028-.062.051-.086.022-.024.049-.043.082-.057.032-.013.069-.02.11-.02s.078.007.111.02c.032.014.059.033.082.057.022.024.039.053.051.086.011.033.017.07.017.109 0 .04-.006.077-.017.11-.012.033-.029.062-.051.086-.023.024-.05.043-.082.056-.033.014-.07.021-.111.021zm0-.09c.025 0 .047-.005.066-.016s.034-.025.046-.042.021-.037.027-.059c.005-.021.008-.043.008-.066 0-.022-.003-.044-.008-.066-.006-.022-.015-.042-.027-.059s-.027-.03-.046-.041-.041-.016-.066-.016-.047.005-.066.016-.034.024-.046.041-.021.037-.026.059c-.006.022-.009.044-.009.066 0 .023.003.045.009.066.005.022.014.042.026.059s.027.031.046.042.041.016.066.016z" transform="matrix(162.339563755 0 0 162.339563755 1112.05288315 675.58064074)"/><path d="m.06-.517h.108v.076l.002.002c.017-.029.04-.051.068-.068.028-.016.059-.024.093-.024.057 0 .101.015.134.044s.049.073.049.132v.355h-.114v-.325c-.001-.041-.01-.07-.026-.089-.016-.018-.041-.027-.075-.027-.019 0-.037.003-.052.01s-.028.017-.039.029c-.011.013-.019.027-.025.044s-.009.034-.009.053v.305h-.114z" transform="matrix(162.339563755 0 0 162.339563755 1208.3190279 675.58064074)"/><path d="m.008-.517h.086v-.155h.114v.155h.103v.085h-.103v.276c0 .012.001.022.002.031s.003.016.007.022c.003.006.009.011.016.013.007.003.017.005.03.005.008 0 .016 0 .024-.001.008 0 .016-.001.024-.003v.088c-.013.001-.025.003-.037.004s-.024.002-.037.002c-.03 0-.054-.003-.072-.009-.019-.005-.033-.014-.043-.025-.011-.011-.018-.024-.021-.041-.004-.017-.006-.036-.007-.057v-.305h-.086z" transform="matrix(162.339563755 0 0 162.339563755 1301.50275329 675.58064074)"/><path d="m.415-.304c-.001-.018-.005-.035-.011-.052-.007-.017-.015-.031-.026-.044-.011-.012-.025-.022-.04-.03-.016-.007-.034-.011-.053-.011-.02 0-.038.003-.054.01-.017.007-.031.017-.042.029-.012.013-.021.027-.028.044s-.011.035-.012.054zm-.266.075c0 .02.003.039.009.058.005.019.014.035.025.049s.026.025.043.033c.017.009.038.013.062.013.033 0 .06-.007.081-.022.02-.014.035-.035.045-.064h.108c-.006.028-.016.053-.031.075s-.032.04-.053.055-.044.027-.069.035c-.026.007-.053.011-.081.011-.041 0-.077-.007-.108-.02s-.058-.032-.079-.056c-.022-.024-.038-.053-.049-.086s-.017-.07-.017-.11c0-.037.006-.071.018-.105.011-.033.028-.062.05-.087.021-.024.047-.044.078-.059s.065-.022.104-.022c.041 0 .077.008.11.025.032.017.059.04.08.068s.037.06.047.096c.009.037.012.074.007.113z" transform="matrix(162.339563755 0 0 162.339563755 1355.56163418 675.58064074)"/><path d="m.06-.517h.108v.076l.002.002c.017-.029.04-.051.068-.068.028-.016.059-.024.093-.024.057 0 .101.015.134.044s.049.073.049.132v.355h-.114v-.325c-.001-.041-.01-.07-.026-.089-.016-.018-.041-.027-.075-.027-.019 0-.037.003-.052.01s-.028.017-.039.029c-.011.013-.019.027-.025.044s-.009.034-.009.053v.305h-.114z" transform="matrix(162.339563755 0 0 162.339563755 1445.82229368 675.58064074)"/><path d="m.008-.517h.086v-.155h.114v.155h.103v.085h-.103v.276c0 .012.001.022.002.031s.003.016.007.022c.003.006.009.011.016.013.007.003.017.005.03.005.008 0 .016 0 .024-.001.008 0 .016-.001.024-.003v.088c-.013.001-.025.003-.037.004s-.024.002-.037.002c-.03 0-.054-.003-.072-.009-.019-.005-.033-.014-.043-.025-.011-.011-.018-.024-.021-.041-.004-.017-.006-.036-.007-.057v-.305h-.086z" transform="matrix(162.339563755 0 0 162.339563755 1539.00601907 675.58064074)"/><path d="m.158-.238c0 .027.005.051.014.07s.022.035.039.047c.017.013.036.022.058.027.021.006.045.009.07.009.027 0 .051-.003.07-.01.019-.006.035-.014.047-.024s.021-.021.026-.035c.005-.013.008-.026.008-.039 0-.027-.006-.048-.018-.061-.013-.013-.026-.022-.041-.027-.025-.009-.055-.018-.088-.027-.034-.008-.076-.019-.125-.032-.031-.008-.056-.019-.076-.032-.021-.013-.037-.027-.049-.043s-.02-.033-.025-.051-.008-.036-.008-.055c0-.036.008-.067.023-.094.014-.026.034-.048.059-.065s.053-.03.084-.039c.031-.008.063-.012.095-.012.037 0 .072.005.106.014.033.01.062.025.087.044s.044.043.059.071c.015.029.022.062.022.099h-.125c-.003-.046-.019-.079-.047-.098s-.064-.028-.107-.028c-.015 0-.03.001-.045.004s-.029.009-.042.015c-.013.007-.023.017-.031.029-.009.012-.013.027-.013.045 0 .025.008.045.024.059.015.015.036.026.061.033.003.001.013.004.032.008.018.005.038.011.061.017s.045.012.067.017c.021.006.037.01.046.013.023.007.044.017.061.03s.032.027.044.043c.011.017.02.034.026.053.005.019.008.037.008.056 0 .04-.008.074-.024.102-.017.029-.038.052-.065.07s-.057.031-.091.04c-.034.008-.069.012-.104.012-.041 0-.079-.005-.115-.015s-.067-.025-.094-.046-.048-.047-.064-.08c-.016-.032-.024-.07-.025-.114z" transform="matrix(162.339563755 0 0 162.339563755 1638.19522971 675.58064074)"/><path d="m.003-.517h.125l.135.386h.002l.131-.386h.119l-.201.545c-.009.023-.018.046-.027.067s-.02.04-.033.057c-.013.016-.03.029-.049.039-.019.009-.044.014-.074.014-.027 0-.053-.002-.079-.006v-.096c.009.001.018.003.027.005.009.001.018.002.027.002.013 0 .024-.002.033-.005s.016-.008.022-.014c.005-.007.01-.014.014-.023s.008-.019.011-.03l.013-.04z" transform="matrix(162.339563755 0 0 162.339563755 1743.3899256 675.58064074)"/><path d="m.146-.166c.003.033.016.057.038.07s.048.02.079.02c.011 0 .023-.001.037-.003.013-.001.026-.004.038-.009s.022-.011.03-.021c.007-.008.011-.02.01-.035s-.006-.027-.016-.036-.023-.017-.038-.023c-.016-.005-.034-.01-.054-.014s-.04-.008-.061-.013-.042-.01-.061-.017c-.02-.007-.038-.016-.053-.027-.016-.011-.029-.026-.038-.044-.009-.017-.014-.039-.014-.065 0-.028.007-.052.021-.071.013-.018.031-.034.052-.046.02-.011.044-.019.07-.024.025-.005.05-.007.073-.007.027 0 .052.003.077.008.024.006.046.015.066.028.019.013.036.029.049.049.013.021.021.045.024.074h-.119c-.005-.027-.018-.046-.037-.055-.02-.009-.043-.014-.068-.014-.008 0-.017.001-.028.002s-.022.004-.031.007c-.01.004-.018.009-.025.016s-.01.017-.01.028c0 .014.005.025.015.034.009.009.022.016.038.021.015.006.033.011.053.015s.041.008.062.013.041.01.061.017.038.016.054.027c.015.011.028.026.038.043.009.017.014.039.014.064 0 .031-.007.057-.021.078s-.032.039-.054.052c-.023.013-.048.023-.075.029s-.054.009-.081.009c-.033 0-.063-.004-.09-.011-.028-.007-.052-.019-.072-.034-.021-.015-.037-.033-.048-.056-.012-.022-.018-.048-.019-.079z" transform="matrix(162.339563755 0 0 162.339563755 1827.64509985 675.58064074)"/><path d="m.008-.517h.086v-.155h.114v.155h.103v.085h-.103v.276c0 .012.001.022.002.031s.003.016.007.022c.003.006.009.011.016.013.007.003.017.005.03.005.008 0 .016 0 .024-.001.008 0 .016-.001.024-.003v.088c-.013.001-.025.003-.037.004s-.024.002-.037.002c-.03 0-.054-.003-.072-.009-.019-.005-.033-.014-.043-.025-.011-.011-.018-.024-.021-.041-.004-.017-.006-.036-.007-.057v-.305h-.086z" transform="matrix(162.339563755 0 0 162.339563755 1911.9002741 675.58064074)"/><path d="m.415-.304c-.001-.018-.005-.035-.011-.052-.007-.017-.015-.031-.026-.044-.011-.012-.025-.022-.04-.03-.016-.007-.034-.011-.053-.011-.02 0-.038.003-.054.01-.017.007-.031.017-.042.029-.012.013-.021.027-.028.044s-.011.035-.012.054zm-.266.075c0 .02.003.039.009.058.005.019.014.035.025.049s.026.025.043.033c.017.009.038.013.062.013.033 0 .06-.007.081-.022.02-.014.035-.035.045-.064h.108c-.006.028-.016.053-.031.075s-.032.04-.053.055-.044.027-.069.035c-.026.007-.053.011-.081.011-.041 0-.077-.007-.108-.02s-.058-.032-.079-.056c-.022-.024-.038-.053-.049-.086s-.017-.07-.017-.11c0-.037.006-.071.018-.105.011-.033.028-.062.05-.087.021-.024.047-.044.078-.059s.065-.022.104-.022c.041 0 .077.008.11.025.032.017.059.04.08.068s.037.06.047.096c.009.037.012.074.007.113z" transform="matrix(162.339563755 0 0 162.339563755 1965.95915499 675.58064074)"/><path d="m.06-.517h.108v.072h.003c.009-.013.018-.024.028-.035s.021-.02.034-.027c.012-.007.026-.013.042-.018.016-.004.034-.006.055-.006.031 0 .061.007.088.021.026.014.046.036.057.065.019-.027.042-.048.067-.063s.057-.023.095-.023c.055 0 .097.013.128.04.03.027.045.071.045.134v.357h-.114v-.302c0-.021-.001-.039-.002-.057-.001-.017-.005-.031-.011-.044-.007-.012-.016-.021-.029-.028s-.03-.01-.052-.01c-.039 0-.067.012-.084.036s-.026.058-.026.102v.303h-.114v-.332c0-.036-.006-.063-.019-.082-.014-.018-.037-.027-.072-.027-.015 0-.029.003-.042.009-.014.006-.026.015-.036.026-.011.011-.019.025-.025.042-.007.017-.01.036-.01.057v.307h-.114z" transform="matrix(162.339563755 0 0 162.339563755 2056.21981449 675.58064074)"/></g></g></svg>