<?xml version="1.0" encoding="UTF-8" standalone="no"?>
<!DOCTYPE svg PUBLIC "-//W3C//DTD SVG 1.1//EN" "http://www.w3.org/Graphics/SVG/1.1/DTD/svg11.dtd">
<svg width="100%" height="100%" viewBox="0 0 320 106" version="1.1" xmlns="http://www.w3.org/2000/svg" xmlns:xlink="http://www.w3.org/1999/xlink" xml:space="preserve" xmlns:serif="http://www.serif.com/" style="fill-rule:evenodd;clip-rule:evenodd;stroke-linecap:round;stroke-linejoin:round;stroke-miterlimit:1.5;">
    <g transform="matrix(1,0,0,1,-0.0739594,-2.13163e-14)">
        <g transform="matrix(0.254623,0,0,0.254623,-126.302,-84.0483)">
            <g transform="matrix(0.205468,0,0,0.205468,329.052,218.637)">
                <g transform="matrix(1.75399,0,0,1.12754,515.058,330.089)">
                    <g transform="matrix(2.23911,0,0,3.48312,-1617.79,-3902.85)">
                        <g transform="matrix(1,0,0,1,1054.66,1430.57)">
                            <g transform="matrix(1,0,0,1,-256,-256)">
                                <g>
                                    <g transform="matrix(1,0,0,1,0,-24.4854)">
                                        <g transform="matrix(-1,0,0,1,508.837,-1.31063)">
                                            <path d="M58.153,219.166L13.581,219.166C9.504,219.166 6.589,215.232 7.774,211.331C10.333,202.905 16.505,190.701 30.796,190.701L49.868,190.701C54.444,190.701 58.153,194.411 58.153,198.986L58.153,219.166Z" style="fill:#6c6c6c;fill-rule:nonzero;"/>
                                        </g>
                                        <g>
                                            <g>
                                                <g>
                                                    <g>
                                                        <g>
                                                            <path d="M349.394,119.637L164.07,119.637C137.314,119.637 113.281,136.002 103.476,160.896L82.631,213.82L430.832,213.82L409.987,160.896C400.183,136.002 376.15,119.637 349.394,119.637Z" style="fill:#373737;fill-rule:nonzero;"/>
                                                            <path d="M430.828,213.82L400.29,213.82L379.449,160.896C369.64,136.003 345.61,119.635 318.853,119.635L349.391,119.635C376.149,119.635 400.179,136.003 409.987,160.896L430.828,213.82Z" style="fill:#6c6c6c;fill-rule:nonzero;"/>
                                                        </g>
                                                        <path d="M361.856,149.892L151.607,149.892C125.18,149.892 101.443,166.055 91.759,190.643L71.17,242.916L442.292,242.916L421.703,190.642C412.02,166.056 388.283,149.892 361.856,149.892Z" style="fill:#b5dbfd;fill-rule:nonzero;"/>
                                                        <path d="M272.643,149.892L240.374,149.892C209.159,180.788 178.13,211.87 147.064,242.916L179.62,242.916C210.627,211.908 241.635,180.901 272.643,149.892Z" style="fill:#d9ecfd;fill-rule:nonzero;"/>
                                                        <path d="M221.03,149.892L172.124,149.892L79.1,242.917L128.006,242.917L221.03,149.892Z" style="fill:#d9ecfd;fill-rule:nonzero;"/>
                                                        <path d="M442.291,242.915L411.752,242.915L391.163,190.642C381.475,166.051 357.745,149.894 331.318,149.894L361.857,149.894C388.284,149.894 412.023,166.051 421.701,190.642L442.291,242.915Z" style="fill:#8dcafc;fill-rule:nonzero;"/>
                                                    </g>
                                                    <path d="M89.378,454.275L53.606,454.275C44.301,454.275 36.759,446.732 36.759,437.428L36.759,390.866L106.226,390.866L106.226,437.428C106.226,446.732 98.683,454.275 89.378,454.275Z" style="fill:#001225;fill-rule:nonzero;"/>
                                                    <g transform="matrix(1,0,0,1,363.804,0)">
                                                        <path d="M89.378,454.275L53.606,454.275C44.301,454.275 36.759,446.732 36.759,437.428L36.759,390.866L106.226,390.866L106.226,437.428C106.226,446.732 98.683,454.275 89.378,454.275Z" style="fill:#001225;fill-rule:nonzero;"/>
                                                    </g>
                                                    <path d="M435.655,232.96L77.809,232.96L41.568,251.957C32.891,256.505 27.453,265.494 27.453,275.293L27.453,394.193C27.453,412.514 42.305,427.367 60.627,427.367L452.837,427.367C471.159,427.367 486.011,412.514 486.011,394.193L486.011,275.292C486.011,265.494 480.574,256.504 471.896,251.956L435.655,232.96Z" style="fill:#373737;fill-rule:nonzero;"/>
                                                    <g>
                                                        <rect x="133.228" y="279.315" width="247.007" height="15.044" style="fill:#6c6c6c;fill-rule:nonzero;"/>
                                                    </g>
                                                    <path d="M486.013,275.297L486.013,394.192C486.013,412.512 471.156,427.369 452.836,427.369L422.136,427.369C440.457,427.369 455.314,412.511 455.314,394.192L455.314,275.297C455.314,265.495 449.871,256.501 441.197,251.955L404.954,232.96L435.654,232.96L471.897,251.955C480.57,256.501 486.013,265.495 486.013,275.297Z" style="fill:#464646;fill-rule:nonzero;"/>
                                                    <path d="M27.452,324.503L27.452,394.192C27.452,412.513 42.304,427.366 60.626,427.366L452.836,427.366C471.158,427.366 486.01,412.513 486.01,394.192L486.01,324.503L27.452,324.503Z" style="fill:#373737;fill-rule:nonzero;"/>
                                                    <rect x="27.452" y="324.503" width="458.56" height="16.733" style="fill:#6c6c6c;fill-rule:nonzero;"/>
                                                    <path d="M486.013,324.506L486.013,394.192C486.013,412.512 471.156,427.369 452.836,427.369L422.136,427.369C440.457,427.369 455.314,412.511 455.314,394.192L455.314,324.506L486.013,324.506Z" style="fill:#6c6c6c;fill-rule:nonzero;"/>
                                                    <g>
                                                        <path d="M486.013,353.635L486.013,394.193C486.013,412.516 471.159,427.37 452.836,427.37L60.628,427.37C42.304,427.37 27.451,412.515 27.451,394.193L27.451,353.635L102.925,353.635C111.55,353.635 119.824,357.062 125.923,363.162L134.364,371.603C136.439,373.678 139.253,374.843 142.187,374.843L371.276,374.843C374.21,374.843 377.024,373.677 379.099,371.603L387.54,363.162C393.64,357.062 401.913,353.635 410.538,353.635L486.013,353.635Z" style="fill:#4d4d4d;fill-rule:nonzero;"/>
                                                        <path d="M486.013,353.635L486.013,394.193C486.013,412.513 471.156,427.37 452.836,427.37L422.136,427.37C440.457,427.37 455.314,412.512 455.314,394.193L455.314,353.635L486.013,353.635Z" style="fill:#6c6c6c;fill-rule:nonzero;"/>
                                                    </g>
                                                    <g>
                                                        <path d="M51.221,250.431L51.221,284.918C51.221,287.77 53.355,290.17 56.187,290.503L118.549,297.85C127.117,298.859 135.765,296.808 142.967,292.059L154.109,284.712C158.138,282.055 157.169,275.89 152.519,274.598L95.357,258.712C95.204,258.67 95.053,258.621 94.905,258.566L58.803,245.16C55.13,243.795 51.221,246.512 51.221,250.431Z" style="fill:#d9ecfd;fill-rule:nonzero;"/>
                                                        <path d="M154.113,284.716L142.97,292.058C135.769,296.812 127.114,298.858 118.549,297.855L94.69,295.047C101.841,294.746 108.831,292.52 114.868,288.528L129.21,278.158C132.881,275.741 132.74,270.656 129.631,268.239L152.518,274.597C157.172,275.89 158.135,282.058 154.113,284.716Z" style="fill:#bad5e4;fill-rule:nonzero;"/>
                                                        <path d="M462.242,250.431L462.242,284.918C462.242,287.77 460.108,290.17 457.276,290.503L394.914,297.85C386.346,298.859 377.698,296.808 370.496,292.059L359.354,284.712C355.325,282.055 356.294,275.89 360.944,274.598L418.106,258.712C418.259,258.67 418.409,258.621 418.558,258.566L454.66,245.16C458.334,243.795 462.242,246.512 462.242,250.431Z" style="fill:#d9ecfd;fill-rule:nonzero;"/>
                                                        <path d="M462.24,250.426L462.24,284.916C462.24,287.774 460.104,290.171 457.276,290.502L433.517,293.3C435.282,292.347 436.456,290.492 436.456,288.375L436.456,256.893C436.456,255.159 435.684,253.655 434.51,252.642L454.659,245.16C458.338,243.797 462.24,246.515 462.24,250.426Z" style="fill:#bad5e4;fill-rule:nonzero;"/>
                                                    </g>
                                                    <path d="M58.153,219.166L13.581,219.166C9.504,219.166 6.589,215.232 7.774,211.331C10.333,202.905 16.505,190.701 30.796,190.701L49.868,190.701C54.444,190.701 58.153,194.411 58.153,198.986L58.153,219.166Z" style="fill:#6c6c6c;fill-rule:nonzero;"/>
                                                    <g>
                                                        <path d="M160.807,324.503L352.657,324.503L352.657,332.841C352.657,356.038 333.852,374.843 310.656,374.843L202.808,374.843C179.612,374.843 160.807,356.038 160.807,332.841L160.807,324.503Z" style="fill:#fff;fill-rule:nonzero;"/>
                                                        <g>
                                                            <path d="M352.652,324.501L352.652,332.84C352.652,335.72 352.362,338.52 351.812,341.24L161.645,341.24C161.095,338.52 160.805,335.72 160.805,332.84L160.805,324.501L352.652,324.501Z" style="fill:#bfbfbf;fill-rule:nonzero;"/>
                                                            <path d="M352.659,324.506L352.659,332.836C352.659,356.035 333.852,374.843 310.653,374.843L275.372,374.843C298.572,374.843 317.379,356.036 317.379,332.836L317.379,324.506L352.659,324.506Z" style="fill:#bfbfbf;fill-rule:nonzero;"/>
                                                        </g>
                                                    </g>
                                                </g>
                                            </g>
                                        </g>
                                        <g transform="matrix(1.06287,0,0,1,0,0)">
                                            <rect x="0" y="82.918" width="241.74" height="415.403" style="fill:none;"/>
                                            <clipPath id="_clip1">
                                                <rect x="0" y="82.918" width="241.74" height="415.403"/>
                                            </clipPath>
                                            <g clip-path="url(#_clip1)">
                                                <g>
                                                    <g>
                                                        <path d="M467.964,343.438L445.437,343.438C442.676,343.438 440.437,341.199 440.437,338.438L440.437,324.018C440.437,321.257 442.676,319.018 445.437,319.018L467.964,319.018C470.725,319.018 472.964,321.257 472.964,324.018L472.964,338.438C472.964,341.2 470.726,343.438 467.964,343.438Z" style="fill:#1682ad;fill-rule:nonzero;"/>
                                                        <g>
                                                            <path d="M101.712,371.386L79.015,371.386C74.872,371.386 71.515,374.743 71.515,378.886C71.515,383.029 74.872,386.386 79.015,386.386L101.712,386.386C105.855,386.386 109.212,383.029 109.212,378.886C109.212,374.743 105.855,371.386 101.712,371.386Z" style="fill-rule:nonzero;"/>
                                                            <path d="M284.614,445.778C285.148,447.71 285.754,449.629 286.434,451.533C288.344,456.886 292.509,461.051 297.862,462.961C306.984,466.217 316.464,467.796 325.883,467.796C336.733,467.796 329.483,322.993 319.523,316.266L319.523,218.853C319.523,218.853 304.52,84.568 304.52,99.731L304.52,112.137L281.637,112.137C277.494,112.137 274.137,115.494 274.137,119.637C274.137,123.78 277.494,127.137 281.637,127.137L304.52,127.137L304.52,142.393L151.605,142.393C139.302,142.393 127.6,145.465 117.331,151.019C127.972,136.185 145.136,127.138 164.07,127.138L248.977,127.138C253.12,127.138 256.476,123.781 256.476,119.638C256.476,115.495 253.12,112.138 248.977,112.138L164.07,112.138C134.03,112.138 107.508,130.199 96.499,158.149L75.415,211.667L65.654,211.667L65.654,198.987C65.654,190.283 58.572,183.202 49.868,183.202L30.795,183.202C16.611,183.202 5.605,192.661 0.597,209.153C-0.665,213.309 0.094,217.693 2.68,221.18C5.265,224.666 9.239,226.666 13.58,226.666L69.505,226.666C69.505,226.666 68.64,228.97 68.556,229.342L38.086,245.314C26.901,251.176 19.952,262.663 19.952,275.292L19.952,394.192C19.952,404.006 23.447,413.02 29.257,420.054L29.257,437.429C29.257,450.856 40.179,461.779 53.606,461.779L89.377,461.779C102.804,461.779 113.726,450.856 113.726,437.429L113.726,434.866L269.406,434.866C273.657,438.791 279.515,442.73 284.614,445.778ZM50.653,211.666L15.554,211.666C18.708,202.728 23.829,198.201 30.795,198.201L49.866,198.201C50.3,198.201 50.652,198.554 50.652,198.986L50.652,211.666L50.653,211.666ZM304.523,267.098L153.708,267.144L97.443,251.507L74.696,243.059L79.656,240.459L304.523,240.459L304.523,267.098ZM58.722,253.128C58.722,253.128 92.996,265.84 93.35,265.938L146.54,280.72L138.839,285.798C133.123,289.567 126.231,291.204 119.428,290.402L58.722,283.251L58.722,253.128ZM167.36,367.343L142.188,367.343C141.237,367.343 140.341,366.972 139.667,366.298L131.227,357.859C123.667,350.298 113.616,346.134 102.925,346.134L34.952,346.134L34.952,332.001L153.306,332.001L153.306,332.84C153.307,346.248 158.673,358.42 167.36,367.343ZM60.626,419.866C46.469,419.866 34.952,408.348 34.952,394.192L34.952,361.134L102.925,361.134C109.61,361.134 115.893,363.738 120.62,368.465L129.06,376.905C132.567,380.411 137.229,382.343 142.187,382.343L243.475,382.343C243.813,385.544 244.329,388.742 245.048,391.923C247.343,402.075 251.4,411.488 256.96,419.865L60.626,419.865L60.626,419.866ZM243.254,367.343L202.808,367.343C183.784,367.343 168.307,351.865 168.307,332.84L168.307,332.001L254.006,332.001C247.878,342.813 244.19,354.908 243.254,367.343ZM98.726,437.429C98.726,442.584 94.532,446.779 89.376,446.779L53.606,446.779C48.451,446.779 44.256,442.585 44.256,437.429L44.256,431.414C49.269,433.627 54.804,434.866 60.626,434.866L98.726,434.866L98.726,437.429ZM316.705,374.667C329.789,361.582 332.509,456.567 309.255,450.748L324.459,435.544C324.459,435.544 326.505,382.781 326.505,386.924L326.505,412.284L298.647,440.142C292.827,416.888 299.574,391.798 316.705,374.667ZM329.819,347.484C321.128,351.534 313.071,357.087 306.099,364.059C305.486,364.672 304.89,365.297 304.299,365.926L300.373,348.568C299.459,344.528 295.442,341.993 291.403,342.907C287.363,343.821 284.829,347.837 285.742,351.877L292.038,379.716L283.277,374.186C279.775,371.976 275.142,373.023 272.931,376.526C270.721,380.029 271.768,384.661 275.271,386.872L286.853,394.182C283.182,404.12 281.387,414.707 281.618,425.34C270.618,415.83 262.961,403.139 259.678,388.617C253.842,362.813 263.529,335.591 284.371,319.256C285.279,318.54 286.445,318.277 287.583,318.531C304.931,322.414 320.047,332.855 329.819,347.484ZM290.871,303.895C285.316,302.646 279.567,303.946 275.106,307.458C271.393,310.369 267.979,313.571 264.864,317.003L34.952,317.003L34.952,275.292C34.952,268.776 38.277,262.81 43.722,259.372L43.722,284.919C43.722,291.57 48.703,297.174 55.31,297.953L117.673,305.3C119.386,305.502 121.101,305.602 122.813,305.602C131.404,305.602 139.872,303.086 147.097,298.322L158.239,290.974C161.406,288.885 163.426,285.676 163.982,282.099L304.523,282.099L304.523,308.226C300.131,306.414 295.572,304.947 290.871,303.895ZM319.523,203.854L319.523,194.882C319.523,190.739 316.166,187.382 312.023,187.382C307.88,187.382 304.523,190.739 304.523,194.882L304.523,225.459L86.103,225.459L98.715,193.439C98.722,193.422 98.732,193.407 98.739,193.39L98.819,193.187C107.485,171.436 128.178,157.392 151.605,157.392L304.52,157.392L304.52,162.218C304.52,166.361 307.877,169.718 312.02,169.718C316.163,169.718 319.52,166.361 319.52,162.218L319.52,99.731C319.52,92.838 319.523,203.854 319.523,203.854Z" style="fill-rule:nonzero;"/>
                                                        </g>
                                                    </g>
                                                </g>
                                            </g>
                                        </g>
                                        <g transform="matrix(-1.06287,0,0,1,512,0)">
                                            <rect x="0" y="82.918" width="240.858" height="415.403" style="fill:none;"/>
                                            <clipPath id="_clip2">
                                                <rect x="0" y="82.918" width="240.858" height="415.403"/>
                                            </clipPath>
                                            <g clip-path="url(#_clip2)">
                                                <g>
                                                    <g>
                                                        <path d="M467.964,343.438L445.437,343.438C442.676,343.438 440.437,341.199 440.437,338.438L440.437,324.018C440.437,321.257 442.676,319.018 445.437,319.018L467.964,319.018C470.725,319.018 472.964,321.257 472.964,324.018L472.964,338.438C472.964,341.2 470.726,343.438 467.964,343.438Z" style="fill:#1682ad;fill-rule:nonzero;"/>
                                                        <g>
                                                            <path d="M101.712,371.386L79.015,371.386C74.872,371.386 71.515,374.743 71.515,378.886C71.515,383.029 74.872,386.386 79.015,386.386L101.712,386.386C105.855,386.386 109.212,383.029 109.212,378.886C109.212,374.743 105.855,371.386 101.712,371.386Z" style="fill-rule:nonzero;"/>
                                                            <path d="M284.614,445.778C285.148,447.71 285.754,449.629 286.434,451.533C288.344,456.886 292.509,461.051 297.862,462.961C306.984,466.217 316.464,467.796 325.883,467.796C336.733,467.796 329.483,322.993 319.523,316.266L319.523,218.853C319.523,218.853 304.52,84.568 304.52,99.731L304.52,112.137L281.637,112.137C277.494,112.137 274.137,115.494 274.137,119.637C274.137,123.78 277.494,127.137 281.637,127.137L304.52,127.137L304.52,142.393L151.605,142.393C139.302,142.393 127.6,145.465 117.331,151.019C127.972,136.185 145.136,127.138 164.07,127.138L248.977,127.138C253.12,127.138 256.476,123.781 256.476,119.638C256.476,115.495 253.12,112.138 248.977,112.138L164.07,112.138C134.03,112.138 107.508,130.199 96.499,158.149L75.415,211.667L65.654,211.667L65.654,198.987C65.654,190.283 58.572,183.202 49.868,183.202L30.795,183.202C16.611,183.202 5.605,192.661 0.597,209.153C-0.665,213.309 0.094,217.693 2.68,221.18C5.265,224.666 9.239,226.666 13.58,226.666L69.505,226.666C69.505,226.666 68.64,228.97 68.556,229.342L38.086,245.314C26.901,251.176 19.952,262.663 19.952,275.292L19.952,394.192C19.952,404.006 23.447,413.02 29.257,420.054L29.257,437.429C29.257,450.856 40.179,461.779 53.606,461.779L89.377,461.779C102.804,461.779 113.726,450.856 113.726,437.429L113.726,434.866L269.406,434.866C273.657,438.791 279.515,442.73 284.614,445.778ZM50.653,211.666L15.554,211.666C18.708,202.728 23.829,198.201 30.795,198.201L49.866,198.201C50.3,198.201 50.652,198.554 50.652,198.986L50.652,211.666L50.653,211.666ZM304.523,267.098L153.708,267.144L97.443,251.507L74.696,243.059L79.656,240.459L304.523,240.459L304.523,267.098ZM58.722,253.128C58.722,253.128 92.996,265.84 93.35,265.938L146.54,280.72L138.839,285.798C133.123,289.567 126.231,291.204 119.428,290.402L58.722,283.251L58.722,253.128ZM167.36,367.343L142.188,367.343C141.237,367.343 140.341,366.972 139.667,366.298L131.227,357.859C123.667,350.298 113.616,346.134 102.925,346.134L34.952,346.134L34.952,332.001L153.306,332.001L153.306,332.84C153.307,346.248 158.673,358.42 167.36,367.343ZM60.626,419.866C46.469,419.866 34.952,408.348 34.952,394.192L34.952,361.134L102.925,361.134C109.61,361.134 115.893,363.738 120.62,368.465L129.06,376.905C132.567,380.411 137.229,382.343 142.187,382.343L243.475,382.343C243.813,385.544 244.329,388.742 245.048,391.923C247.343,402.075 251.4,411.488 256.96,419.865L60.626,419.865L60.626,419.866ZM243.254,367.343L202.808,367.343C183.784,367.343 168.307,351.865 168.307,332.84L168.307,332.001L254.006,332.001C247.878,342.813 244.19,354.908 243.254,367.343ZM98.726,437.429C98.726,442.584 94.532,446.779 89.376,446.779L53.606,446.779C48.451,446.779 44.256,442.585 44.256,437.429L44.256,431.414C49.269,433.627 54.804,434.866 60.626,434.866L98.726,434.866L98.726,437.429ZM316.705,374.667C329.789,361.582 332.509,456.567 309.255,450.748L324.459,435.544C324.459,435.544 326.505,382.781 326.505,386.924L326.505,412.284L298.647,440.142C292.827,416.888 299.574,391.798 316.705,374.667ZM329.819,347.484C321.128,351.534 313.071,357.087 306.099,364.059C305.486,364.672 304.89,365.297 304.299,365.926L300.373,348.568C299.459,344.528 295.442,341.993 291.403,342.907C287.363,343.821 284.829,347.837 285.742,351.877L292.038,379.716L283.277,374.186C279.775,371.976 275.142,373.023 272.931,376.526C270.721,380.029 271.768,384.661 275.271,386.872L286.853,394.182C283.182,404.12 281.387,414.707 281.618,425.34C270.618,415.83 262.961,403.139 259.678,388.617C253.842,362.813 263.529,335.591 284.371,319.256C285.279,318.54 286.445,318.277 287.583,318.531C304.931,322.414 320.047,332.855 329.819,347.484ZM290.871,303.895C285.316,302.646 279.567,303.946 275.106,307.458C271.393,310.369 267.979,313.571 264.864,317.003L34.952,317.003L34.952,275.292C34.952,268.776 38.277,262.81 43.722,259.372L43.722,284.919C43.722,291.57 48.703,297.174 55.31,297.953L117.673,305.3C119.386,305.502 121.101,305.602 122.813,305.602C131.404,305.602 139.872,303.086 147.097,298.322L158.239,290.974C161.406,288.885 163.426,285.676 163.982,282.099L304.523,282.099L304.523,308.226C300.131,306.414 295.572,304.947 290.871,303.895ZM319.523,203.854L319.523,194.882C319.523,190.739 316.166,187.382 312.023,187.382C307.88,187.382 304.523,190.739 304.523,194.882L304.523,225.459L86.103,225.459L98.715,193.439C98.722,193.422 98.732,193.407 98.739,193.39L98.819,193.187C107.485,171.436 128.178,157.392 151.605,157.392L304.52,157.392L304.52,162.218C304.52,166.361 307.877,169.718 312.02,169.718C316.163,169.718 319.52,166.361 319.52,162.218L319.52,99.731C319.52,92.838 319.523,203.854 319.523,203.854Z" style="fill-rule:nonzero;"/>
                                                        </g>
                                                    </g>
                                                </g>
                                            </g>
                                        </g>
                                    </g>
                                </g>
                            </g>
                        </g>
                        <g transform="matrix(0.832048,0,0,0.832048,162.264,257.75)">
                            <g transform="matrix(1,0,0,1,-625.239,-101.137)">
                                <circle cx="1945.39" cy="1465.58" r="194.978" style="fill:#2d2d2d;fill-opacity:0.4;"/>
                            </g>
                            <g transform="matrix(1,0,0,1,-625.239,-141.667)">
                                <circle cx="1945.39" cy="1465.58" r="194.978" style="fill:#00d709;stroke:#000;stroke-width:37.26px;"/>
                            </g>
                        </g>
                    </g>
                    <g transform="matrix(49.3404,0,0,76.7532,-162882,-18298.3)">
                        <g transform="matrix(12,0,0,12,3321.92,253.066)">
                            <path d="M0.434,-0.522C0.427,-0.539 0.415,-0.552 0.398,-0.563C0.381,-0.575 0.361,-0.58 0.337,-0.58C0.322,-0.58 0.309,-0.577 0.298,-0.572C0.286,-0.567 0.276,-0.56 0.268,-0.55C0.26,-0.541 0.254,-0.529 0.249,-0.516C0.245,-0.503 0.243,-0.488 0.243,-0.471L0.244,-0.401L0.385,-0.401L0.385,-0.278L0.244,-0.278L0.244,-0.128L0.538,-0.128L0.538,-0L0.044,-0L0.044,-0.128L0.102,-0.128L0.102,-0.278L0.044,-0.278L0.044,-0.401L0.102,-0.401L0.102,-0.48C0.102,-0.516 0.108,-0.548 0.119,-0.577C0.131,-0.605 0.147,-0.629 0.168,-0.649C0.188,-0.669 0.213,-0.684 0.241,-0.694C0.27,-0.705 0.301,-0.71 0.335,-0.71C0.358,-0.71 0.381,-0.708 0.403,-0.703C0.424,-0.699 0.444,-0.692 0.463,-0.683C0.481,-0.674 0.498,-0.664 0.512,-0.651C0.527,-0.638 0.539,-0.624 0.549,-0.607L0.434,-0.522Z" style="fill-rule:nonzero;"/>
                        </g>
                    </g>
                </g>
                <g transform="matrix(1.75399,0,0,1.12754,3383.12,399.578)">
                    <g transform="matrix(33.3479,0,0,51.8755,-64801.5,-78917.9)">
                        <g transform="matrix(12,0,0,12,1948.26,1536.39)">
                            <path d="M0.084,-0.077C0.084,-0.034 0.118,-0 0.161,-0L0.417,-0C0.575,-0 0.679,-0.064 0.679,-0.192L0.679,-0.194C0.679,-0.288 0.629,-0.335 0.548,-0.366C0.598,-0.394 0.64,-0.438 0.64,-0.517L0.64,-0.519C0.64,-0.567 0.624,-0.606 0.592,-0.638C0.552,-0.678 0.489,-0.7 0.409,-0.7L0.161,-0.7C0.118,-0.7 0.084,-0.666 0.084,-0.623L0.084,-0.077ZM0.234,-0.417L0.234,-0.565L0.386,-0.565C0.451,-0.565 0.487,-0.539 0.487,-0.493L0.487,-0.491C0.487,-0.439 0.444,-0.417 0.376,-0.417L0.234,-0.417ZM0.234,-0.135L0.234,-0.289L0.412,-0.289C0.491,-0.289 0.526,-0.26 0.526,-0.213L0.526,-0.211C0.526,-0.159 0.485,-0.135 0.417,-0.135L0.234,-0.135Z" style="fill:#0e006b;fill-rule:nonzero;"/>
                        </g>
                        <g transform="matrix(12,0,0,12,1956.09,1536.39)">
                            <path d="M0.22,0.01C0.294,0.01 0.345,-0.017 0.382,-0.058L0.382,-0.057C0.382,-0.025 0.411,0.006 0.455,0.006C0.496,0.006 0.529,-0.026 0.529,-0.067L0.529,-0.311C0.529,-0.383 0.511,-0.442 0.471,-0.482C0.433,-0.52 0.373,-0.542 0.29,-0.542C0.219,-0.542 0.167,-0.532 0.119,-0.514C0.095,-0.505 0.078,-0.482 0.078,-0.455C0.078,-0.42 0.106,-0.393 0.141,-0.393C0.148,-0.393 0.154,-0.394 0.163,-0.397C0.192,-0.406 0.226,-0.412 0.268,-0.412C0.344,-0.412 0.383,-0.377 0.383,-0.314L0.383,-0.305C0.345,-0.318 0.306,-0.327 0.252,-0.327C0.125,-0.327 0.036,-0.273 0.036,-0.156L0.036,-0.154C0.036,-0.048 0.119,0.01 0.22,0.01ZM0.266,-0.095C0.217,-0.095 0.183,-0.119 0.183,-0.16L0.183,-0.162C0.183,-0.21 0.223,-0.236 0.288,-0.236C0.325,-0.236 0.359,-0.228 0.385,-0.216L0.385,-0.189C0.385,-0.134 0.337,-0.095 0.266,-0.095Z" style="fill:#0e006b;fill-rule:nonzero;"/>
                        </g>
                        <g transform="matrix(12,0,0,12,1962.11,1536.39)">
                            <path d="M0.607,-0.66C0.607,-0.702 0.573,-0.736 0.531,-0.736C0.489,-0.736 0.455,-0.702 0.455,-0.66L0.455,-0.466C0.419,-0.509 0.369,-0.546 0.288,-0.546C0.161,-0.546 0.044,-0.448 0.044,-0.269L0.044,-0.267C0.044,-0.088 0.163,0.01 0.288,0.01C0.367,0.01 0.418,-0.027 0.455,-0.077L0.455,-0.07C0.455,-0.028 0.489,0.006 0.531,0.006C0.573,0.006 0.607,-0.028 0.607,-0.07L0.607,-0.66ZM0.327,-0.417C0.398,-0.417 0.457,-0.358 0.457,-0.269L0.457,-0.267C0.457,-0.178 0.398,-0.119 0.327,-0.119C0.256,-0.119 0.196,-0.178 0.196,-0.267L0.196,-0.269C0.196,-0.359 0.256,-0.417 0.327,-0.417Z" style="fill:#0e006b;fill-rule:nonzero;"/>
                        </g>
                        <g transform="matrix(12,0,0,12,1970.45,1536.39)">
                            <path d="M0.412,0.012C0.524,0.012 0.598,-0.021 0.661,-0.076C0.675,-0.088 0.687,-0.107 0.687,-0.131C0.687,-0.17 0.654,-0.202 0.615,-0.202C0.597,-0.202 0.581,-0.195 0.569,-0.185C0.525,-0.15 0.482,-0.13 0.417,-0.13C0.297,-0.13 0.214,-0.23 0.214,-0.35L0.214,-0.352C0.214,-0.472 0.299,-0.57 0.417,-0.57C0.472,-0.57 0.517,-0.552 0.56,-0.52C0.571,-0.513 0.585,-0.505 0.606,-0.505C0.648,-0.505 0.682,-0.538 0.682,-0.58C0.682,-0.607 0.668,-0.629 0.652,-0.641C0.594,-0.684 0.523,-0.712 0.418,-0.712C0.203,-0.712 0.053,-0.549 0.053,-0.35L0.053,-0.348C0.053,-0.147 0.206,0.012 0.412,0.012Z" style="fill:#0e006b;fill-rule:nonzero;"/>
                        </g>
                        <g transform="matrix(12,0,0,12,1978.59,1536.39)">
                            <path d="M0.068,-0.07C0.068,-0.028 0.102,0.006 0.144,0.006C0.186,0.006 0.22,-0.028 0.22,-0.07L0.22,-0.212C0.22,-0.32 0.263,-0.379 0.34,-0.397C0.371,-0.404 0.397,-0.428 0.397,-0.468C0.397,-0.511 0.37,-0.542 0.323,-0.542C0.278,-0.542 0.242,-0.494 0.22,-0.442L0.22,-0.466C0.22,-0.508 0.186,-0.542 0.144,-0.542C0.102,-0.542 0.068,-0.508 0.068,-0.466L0.068,-0.07Z" style="fill:#0e006b;fill-rule:nonzero;"/>
                        </g>
                        <g transform="matrix(12,0,0,12,1982.58,1536.39)">
                            <path d="M0.191,-0.31C0.203,-0.379 0.244,-0.424 0.307,-0.424C0.371,-0.424 0.411,-0.378 0.42,-0.31L0.191,-0.31ZM0.508,-0.053C0.519,-0.063 0.528,-0.078 0.528,-0.098C0.528,-0.132 0.503,-0.158 0.469,-0.158C0.453,-0.158 0.443,-0.154 0.432,-0.146C0.401,-0.123 0.366,-0.11 0.324,-0.11C0.256,-0.11 0.208,-0.146 0.193,-0.215L0.494,-0.215C0.534,-0.215 0.565,-0.244 0.565,-0.288C0.565,-0.399 0.486,-0.546 0.307,-0.546C0.151,-0.546 0.042,-0.42 0.042,-0.267L0.042,-0.265C0.042,-0.101 0.161,0.012 0.322,0.012C0.4,0.012 0.461,-0.013 0.508,-0.053Z" style="fill:#0e006b;fill-rule:nonzero;"/>
                        </g>
                        <g transform="matrix(12,0,0,12,1988.98,1536.39)">
                            <path d="M0.607,-0.66C0.607,-0.702 0.573,-0.736 0.531,-0.736C0.489,-0.736 0.455,-0.702 0.455,-0.66L0.455,-0.466C0.419,-0.509 0.369,-0.546 0.288,-0.546C0.161,-0.546 0.044,-0.448 0.044,-0.269L0.044,-0.267C0.044,-0.088 0.163,0.01 0.288,0.01C0.367,0.01 0.418,-0.027 0.455,-0.077L0.455,-0.07C0.455,-0.028 0.489,0.006 0.531,0.006C0.573,0.006 0.607,-0.028 0.607,-0.07L0.607,-0.66ZM0.327,-0.417C0.398,-0.417 0.457,-0.358 0.457,-0.269L0.457,-0.267C0.457,-0.178 0.398,-0.119 0.327,-0.119C0.256,-0.119 0.196,-0.178 0.196,-0.267L0.196,-0.269C0.196,-0.359 0.256,-0.417 0.327,-0.417Z" style="fill:#0e006b;fill-rule:nonzero;"/>
                        </g>
                        <g transform="matrix(12,0,0,12,1996,1536.39)">
                            <path d="M0.066,-0.662C0.066,-0.618 0.103,-0.59 0.151,-0.59C0.199,-0.59 0.236,-0.618 0.236,-0.662L0.236,-0.664C0.236,-0.708 0.199,-0.735 0.151,-0.735C0.103,-0.735 0.066,-0.708 0.066,-0.664L0.066,-0.662ZM0.075,-0.07C0.075,-0.028 0.109,0.006 0.151,0.006C0.193,0.006 0.227,-0.028 0.227,-0.07L0.227,-0.466C0.227,-0.508 0.193,-0.542 0.151,-0.542C0.109,-0.542 0.075,-0.508 0.075,-0.466L0.075,-0.07Z" style="fill:#0e006b;fill-rule:nonzero;"/>
                        </g>
                        <g transform="matrix(12,0,0,12,1999.02,1536.39)">
                            <path d="M0.249,0.009C0.282,0.009 0.308,0.005 0.336,-0.006C0.357,-0.014 0.375,-0.036 0.375,-0.063C0.375,-0.098 0.346,-0.126 0.312,-0.126C0.309,-0.126 0.299,-0.125 0.294,-0.125C0.26,-0.125 0.245,-0.142 0.245,-0.177L0.245,-0.406L0.312,-0.406C0.348,-0.406 0.377,-0.435 0.377,-0.471C0.377,-0.507 0.348,-0.536 0.312,-0.536L0.245,-0.536L0.245,-0.603C0.245,-0.645 0.211,-0.679 0.169,-0.679C0.127,-0.679 0.093,-0.645 0.093,-0.603L0.093,-0.536L0.088,-0.536C0.052,-0.536 0.023,-0.507 0.023,-0.471C0.023,-0.435 0.052,-0.406 0.088,-0.406L0.093,-0.406L0.093,-0.152C0.093,-0.028 0.156,0.009 0.249,0.009Z" style="fill:#0e006b;fill-rule:nonzero;"/>
                        </g>
                        <g transform="matrix(12,0,0,12,1948.26,1547.38)">
                            <path d="M0.084,-0.07C0.084,-0.028 0.118,0.006 0.16,0.006C0.202,0.006 0.236,-0.028 0.236,-0.07L0.236,-0.445L0.544,-0.041C0.565,-0.014 0.587,0.004 0.624,0.004L0.629,0.004C0.672,0.004 0.706,-0.03 0.706,-0.073L0.706,-0.63C0.706,-0.672 0.672,-0.706 0.63,-0.706C0.588,-0.706 0.554,-0.672 0.554,-0.63L0.554,-0.269L0.257,-0.659C0.236,-0.686 0.214,-0.704 0.177,-0.704L0.161,-0.704C0.118,-0.704 0.084,-0.67 0.084,-0.627L0.084,-0.07Z" style="fill:#0e006b;fill-rule:nonzero;"/>
                        </g>
                        <g transform="matrix(12,0,0,12,1956.66,1547.38)">
                            <path d="M0.191,-0.31C0.203,-0.379 0.244,-0.424 0.307,-0.424C0.371,-0.424 0.411,-0.378 0.42,-0.31L0.191,-0.31ZM0.508,-0.053C0.519,-0.063 0.528,-0.078 0.528,-0.098C0.528,-0.132 0.503,-0.158 0.469,-0.158C0.453,-0.158 0.443,-0.154 0.432,-0.146C0.401,-0.123 0.366,-0.11 0.324,-0.11C0.256,-0.11 0.208,-0.146 0.193,-0.215L0.494,-0.215C0.534,-0.215 0.565,-0.244 0.565,-0.288C0.565,-0.399 0.486,-0.546 0.307,-0.546C0.151,-0.546 0.042,-0.42 0.042,-0.267L0.042,-0.265C0.042,-0.101 0.161,0.012 0.322,0.012C0.4,0.012 0.461,-0.013 0.508,-0.053Z" style="fill:#0e006b;fill-rule:nonzero;"/>
                        </g>
                        <g transform="matrix(12,0,0,12,1963,1547.38)">
                            <path d="M0.251,0.01L0.256,0.01C0.293,0.01 0.324,-0.011 0.338,-0.055L0.424,-0.325L0.509,-0.055C0.523,-0.011 0.554,0.01 0.591,0.01L0.596,0.01C0.633,0.01 0.664,-0.011 0.68,-0.058L0.815,-0.441C0.817,-0.448 0.82,-0.462 0.82,-0.472C0.82,-0.51 0.791,-0.542 0.749,-0.542C0.709,-0.542 0.686,-0.516 0.676,-0.484L0.592,-0.21L0.507,-0.482C0.496,-0.518 0.468,-0.543 0.429,-0.543L0.42,-0.543C0.381,-0.543 0.353,-0.518 0.342,-0.482L0.258,-0.211L0.176,-0.483C0.165,-0.518 0.14,-0.542 0.102,-0.542C0.057,-0.542 0.029,-0.508 0.029,-0.473C0.029,-0.46 0.033,-0.445 0.036,-0.436L0.167,-0.058C0.183,-0.011 0.214,0.01 0.251,0.01Z" style="fill:#0e006b;fill-rule:nonzero;"/>
                        </g>
                        <g transform="matrix(12,0,0,12,1973.67,1547.38)">
                            <path d="M0.412,0.012C0.524,0.012 0.598,-0.021 0.661,-0.076C0.675,-0.088 0.687,-0.107 0.687,-0.131C0.687,-0.17 0.654,-0.202 0.615,-0.202C0.597,-0.202 0.581,-0.195 0.569,-0.185C0.525,-0.15 0.482,-0.13 0.417,-0.13C0.297,-0.13 0.214,-0.23 0.214,-0.35L0.214,-0.352C0.214,-0.472 0.299,-0.57 0.417,-0.57C0.472,-0.57 0.517,-0.552 0.56,-0.52C0.571,-0.513 0.585,-0.505 0.606,-0.505C0.648,-0.505 0.682,-0.538 0.682,-0.58C0.682,-0.607 0.668,-0.629 0.652,-0.641C0.594,-0.684 0.523,-0.712 0.418,-0.712C0.203,-0.712 0.053,-0.549 0.053,-0.35L0.053,-0.348C0.053,-0.147 0.206,0.012 0.412,0.012Z" style="fill:#0e006b;fill-rule:nonzero;"/>
                        </g>
                        <g transform="matrix(12,0,0,12,1981.8,1547.38)">
                            <path d="M0.22,0.01C0.294,0.01 0.345,-0.017 0.382,-0.058L0.382,-0.057C0.382,-0.025 0.411,0.006 0.455,0.006C0.496,0.006 0.529,-0.026 0.529,-0.067L0.529,-0.311C0.529,-0.383 0.511,-0.442 0.471,-0.482C0.433,-0.52 0.373,-0.542 0.29,-0.542C0.219,-0.542 0.167,-0.532 0.119,-0.514C0.095,-0.505 0.078,-0.482 0.078,-0.455C0.078,-0.42 0.106,-0.393 0.141,-0.393C0.148,-0.393 0.154,-0.394 0.163,-0.397C0.192,-0.406 0.226,-0.412 0.268,-0.412C0.344,-0.412 0.383,-0.377 0.383,-0.314L0.383,-0.305C0.345,-0.318 0.306,-0.327 0.252,-0.327C0.125,-0.327 0.036,-0.273 0.036,-0.156L0.036,-0.154C0.036,-0.048 0.119,0.01 0.22,0.01ZM0.266,-0.095C0.217,-0.095 0.183,-0.119 0.183,-0.16L0.183,-0.162C0.183,-0.21 0.223,-0.236 0.288,-0.236C0.325,-0.236 0.359,-0.228 0.385,-0.216L0.385,-0.189C0.385,-0.134 0.337,-0.095 0.266,-0.095Z" style="fill:#0e006b;fill-rule:nonzero;"/>
                        </g>
                        <g transform="matrix(12,0,0,12,1987.95,1547.38)">
                            <path d="M0.068,-0.07C0.068,-0.028 0.102,0.006 0.144,0.006C0.186,0.006 0.22,-0.028 0.22,-0.07L0.22,-0.212C0.22,-0.32 0.263,-0.379 0.34,-0.397C0.371,-0.404 0.397,-0.428 0.397,-0.468C0.397,-0.511 0.37,-0.542 0.323,-0.542C0.278,-0.542 0.242,-0.494 0.22,-0.442L0.22,-0.466C0.22,-0.508 0.186,-0.542 0.144,-0.542C0.102,-0.542 0.068,-0.508 0.068,-0.466L0.068,-0.07Z" style="fill:#0e006b;fill-rule:nonzero;"/>
                        </g>
                        <g transform="matrix(12,0,0,12,1992.24,1547.38)">
                            <path d="M0.116,-0.276C0.119,-0.249 0.137,-0.232 0.162,-0.232C0.187,-0.232 0.205,-0.249 0.208,-0.276L0.251,-0.652C0.254,-0.681 0.238,-0.703 0.211,-0.703L0.113,-0.703C0.086,-0.703 0.07,-0.681 0.073,-0.652L0.116,-0.276ZM0.075,-0.081L0.075,-0.079C0.075,-0.031 0.112,0.006 0.162,0.006C0.212,0.006 0.249,-0.031 0.249,-0.079L0.249,-0.081C0.249,-0.129 0.212,-0.166 0.162,-0.166C0.112,-0.166 0.075,-0.129 0.075,-0.081Z" style="fill:#0e006b;fill-rule:nonzero;"/>
                        </g>
                    </g>
                    <g transform="matrix(23.2341,0,0,36.1425,-45071.2,-53843)">
                        <g transform="matrix(4.83436,0,0,4.83436,1948.26,1536.39)">
                            <path d="M0.446,-0.168L0.171,-0.168L0.122,-0L0.031,-0L0.248,-0.7L0.372,-0.7L0.591,-0L0.496,-0L0.446,-0.168ZM0.192,-0.241L0.425,-0.241L0.312,-0.623L0.304,-0.623L0.192,-0.241Z" style="fill:#747378;fill-rule:nonzero;"/>
                        </g>
                        <g transform="matrix(4.83436,0,0,4.83436,1952.11,1536.39)">
                            <path d="M0.047,-0.277C0.047,-0.31 0.052,-0.34 0.061,-0.369C0.07,-0.397 0.084,-0.421 0.102,-0.442C0.119,-0.463 0.14,-0.479 0.165,-0.491C0.19,-0.503 0.218,-0.509 0.249,-0.509C0.276,-0.509 0.302,-0.503 0.327,-0.493C0.352,-0.482 0.373,-0.465 0.39,-0.442L0.39,-0.499L0.472,-0.499L0.472,-0C0.472,0.031 0.466,0.057 0.453,0.078C0.441,0.099 0.424,0.116 0.404,0.128C0.384,0.141 0.361,0.15 0.336,0.156C0.31,0.161 0.284,0.164 0.258,0.164C0.243,0.164 0.228,0.163 0.212,0.162C0.196,0.16 0.181,0.158 0.165,0.154C0.149,0.151 0.133,0.147 0.117,0.142C0.102,0.137 0.087,0.131 0.073,0.124L0.103,0.055C0.113,0.06 0.123,0.064 0.134,0.069C0.145,0.073 0.156,0.077 0.169,0.081C0.181,0.084 0.195,0.087 0.209,0.089C0.223,0.092 0.239,0.093 0.256,0.093C0.277,0.093 0.295,0.091 0.312,0.086C0.329,0.082 0.343,0.076 0.354,0.067C0.366,0.058 0.375,0.046 0.381,0.032C0.387,0.019 0.39,0.002 0.39,-0.017L0.39,-0.112C0.373,-0.088 0.352,-0.071 0.327,-0.061C0.302,-0.05 0.276,-0.045 0.249,-0.045C0.218,-0.045 0.19,-0.051 0.165,-0.063C0.14,-0.075 0.119,-0.091 0.102,-0.112C0.084,-0.133 0.07,-0.157 0.061,-0.185C0.052,-0.213 0.047,-0.244 0.047,-0.277ZM0.392,-0.279C0.392,-0.301 0.39,-0.322 0.385,-0.341C0.38,-0.36 0.372,-0.377 0.362,-0.391C0.351,-0.405 0.338,-0.416 0.322,-0.424C0.306,-0.432 0.287,-0.436 0.264,-0.436C0.241,-0.436 0.222,-0.432 0.205,-0.424C0.188,-0.416 0.175,-0.405 0.164,-0.39C0.153,-0.376 0.145,-0.36 0.14,-0.34C0.134,-0.321 0.132,-0.301 0.132,-0.279L0.132,-0.275C0.132,-0.253 0.134,-0.233 0.14,-0.214C0.145,-0.195 0.153,-0.178 0.164,-0.164C0.175,-0.15 0.188,-0.139 0.205,-0.13C0.222,-0.122 0.241,-0.118 0.264,-0.118C0.287,-0.118 0.306,-0.122 0.322,-0.13C0.338,-0.138 0.351,-0.149 0.362,-0.163C0.372,-0.177 0.38,-0.194 0.385,-0.213C0.39,-0.232 0.392,-0.253 0.392,-0.275L0.392,-0.279Z" style="fill:#747378;fill-rule:nonzero;"/>
                        </g>
                        <g transform="matrix(4.83436,0,0,4.83436,1954.76,1536.39)">
                            <path d="M0.33,-0.426L0.317,-0.426C0.296,-0.426 0.276,-0.423 0.256,-0.418C0.237,-0.414 0.22,-0.405 0.206,-0.392C0.191,-0.379 0.179,-0.362 0.17,-0.34C0.162,-0.318 0.157,-0.29 0.157,-0.256L0.157,-0L0.075,-0L0.075,-0.499L0.157,-0.499L0.157,-0.42C0.163,-0.435 0.172,-0.447 0.182,-0.458C0.193,-0.47 0.204,-0.479 0.218,-0.486C0.231,-0.493 0.245,-0.499 0.26,-0.502C0.275,-0.506 0.291,-0.508 0.306,-0.508L0.33,-0.508L0.33,-0.426Z" style="fill:#747378;fill-rule:nonzero;"/>
                        </g>
                        <g transform="matrix(4.83436,0,0,4.83436,1956.4,1536.39)">
                            <path d="M0.131,-0.224C0.132,-0.201 0.137,-0.179 0.145,-0.159C0.153,-0.139 0.163,-0.122 0.177,-0.108C0.191,-0.093 0.206,-0.082 0.225,-0.074C0.243,-0.066 0.264,-0.062 0.286,-0.062C0.314,-0.062 0.338,-0.067 0.359,-0.076C0.38,-0.085 0.399,-0.097 0.417,-0.111L0.459,-0.052C0.437,-0.034 0.411,-0.019 0.381,-0.008C0.352,0.004 0.319,0.01 0.282,0.01C0.246,0.01 0.213,0.003 0.184,-0.01C0.155,-0.022 0.13,-0.04 0.109,-0.063C0.088,-0.086 0.073,-0.114 0.062,-0.145C0.05,-0.177 0.045,-0.212 0.045,-0.249C0.045,-0.287 0.05,-0.322 0.061,-0.354C0.072,-0.385 0.088,-0.413 0.107,-0.436C0.127,-0.459 0.151,-0.477 0.179,-0.49C0.206,-0.502 0.237,-0.509 0.271,-0.509C0.304,-0.509 0.333,-0.502 0.36,-0.49C0.386,-0.477 0.409,-0.459 0.427,-0.436C0.446,-0.413 0.46,-0.385 0.47,-0.354C0.48,-0.322 0.485,-0.287 0.485,-0.25L0.485,-0.224L0.131,-0.224ZM0.268,-0.437C0.247,-0.437 0.229,-0.433 0.212,-0.425C0.196,-0.417 0.182,-0.406 0.171,-0.392C0.159,-0.378 0.15,-0.363 0.143,-0.345C0.137,-0.327 0.133,-0.309 0.132,-0.29L0.396,-0.29C0.395,-0.309 0.392,-0.328 0.386,-0.345C0.38,-0.363 0.372,-0.379 0.361,-0.392C0.35,-0.406 0.337,-0.417 0.321,-0.425C0.306,-0.433 0.288,-0.437 0.268,-0.437Z" style="fill:#747378;fill-rule:nonzero;"/>
                        </g>
                        <g transform="matrix(4.83436,0,0,4.83436,1958.93,1536.39)">
                            <path d="M0.131,-0.224C0.132,-0.201 0.137,-0.179 0.145,-0.159C0.153,-0.139 0.163,-0.122 0.177,-0.108C0.191,-0.093 0.206,-0.082 0.225,-0.074C0.243,-0.066 0.264,-0.062 0.286,-0.062C0.314,-0.062 0.338,-0.067 0.359,-0.076C0.38,-0.085 0.399,-0.097 0.417,-0.111L0.459,-0.052C0.437,-0.034 0.411,-0.019 0.381,-0.008C0.352,0.004 0.319,0.01 0.282,0.01C0.246,0.01 0.213,0.003 0.184,-0.01C0.155,-0.022 0.13,-0.04 0.109,-0.063C0.088,-0.086 0.073,-0.114 0.062,-0.145C0.05,-0.177 0.045,-0.212 0.045,-0.249C0.045,-0.287 0.05,-0.322 0.061,-0.354C0.072,-0.385 0.088,-0.413 0.107,-0.436C0.127,-0.459 0.151,-0.477 0.179,-0.49C0.206,-0.502 0.237,-0.509 0.271,-0.509C0.304,-0.509 0.333,-0.502 0.36,-0.49C0.386,-0.477 0.409,-0.459 0.427,-0.436C0.446,-0.413 0.46,-0.385 0.47,-0.354C0.48,-0.322 0.485,-0.287 0.485,-0.25L0.485,-0.224L0.131,-0.224ZM0.268,-0.437C0.247,-0.437 0.229,-0.433 0.212,-0.425C0.196,-0.417 0.182,-0.406 0.171,-0.392C0.159,-0.378 0.15,-0.363 0.143,-0.345C0.137,-0.327 0.133,-0.309 0.132,-0.29L0.396,-0.29C0.395,-0.309 0.392,-0.328 0.386,-0.345C0.38,-0.363 0.372,-0.379 0.361,-0.392C0.35,-0.406 0.337,-0.417 0.321,-0.425C0.306,-0.433 0.288,-0.437 0.268,-0.437Z" style="fill:#747378;fill-rule:nonzero;"/>
                        </g>
                        <g transform="matrix(4.83436,0,0,4.83436,1961.46,1536.39)">
                            <path d="M0.075,-0.499L0.157,-0.499L0.157,-0.442C0.174,-0.465 0.195,-0.482 0.22,-0.493C0.245,-0.503 0.273,-0.509 0.303,-0.509C0.331,-0.509 0.355,-0.504 0.376,-0.495C0.397,-0.486 0.414,-0.474 0.428,-0.458C0.442,-0.442 0.453,-0.424 0.46,-0.404C0.467,-0.383 0.47,-0.362 0.47,-0.339L0.47,-0L0.388,-0L0.388,-0.313C0.388,-0.335 0.385,-0.353 0.38,-0.369C0.375,-0.384 0.367,-0.397 0.358,-0.406C0.349,-0.416 0.338,-0.423 0.325,-0.427C0.313,-0.432 0.299,-0.434 0.285,-0.434C0.27,-0.434 0.254,-0.431 0.239,-0.426C0.224,-0.42 0.21,-0.411 0.198,-0.4C0.186,-0.389 0.176,-0.374 0.168,-0.357C0.161,-0.34 0.157,-0.319 0.157,-0.296L0.157,-0L0.075,-0L0.075,-0.499Z" style="fill:#747378;fill-rule:nonzero;"/>
                        </g>
                        <g transform="matrix(4.83436,0,0,4.83436,1965.04,1536.39)">
                            <path d="M0.072,-0.7L0.154,-0.7L0.154,-0.112C0.154,-0.104 0.155,-0.097 0.156,-0.09C0.157,-0.084 0.16,-0.079 0.164,-0.075C0.167,-0.07 0.172,-0.067 0.178,-0.065C0.185,-0.063 0.193,-0.062 0.202,-0.062C0.213,-0.062 0.222,-0.062 0.23,-0.063C0.239,-0.064 0.246,-0.064 0.253,-0.065L0.261,0.004C0.252,0.005 0.242,0.006 0.233,0.007C0.225,0.007 0.216,0.008 0.206,0.009C0.196,0.009 0.187,0.01 0.178,0.01C0.164,0.01 0.15,0.008 0.137,0.005C0.124,0.001 0.112,-0.004 0.103,-0.012C0.093,-0.02 0.086,-0.03 0.08,-0.042C0.075,-0.055 0.072,-0.07 0.072,-0.088L0.072,-0.7Z" style="fill:#747378;fill-rule:nonzero;"/>
                        </g>
                        <g transform="matrix(4.83436,0,0,4.83436,1966.32,1536.39)">
                            <path d="M0.157,-0L0.075,-0L0.075,-0.499L0.157,-0.499L0.157,-0ZM0.06,-0.643C0.06,-0.651 0.062,-0.658 0.065,-0.665C0.068,-0.672 0.072,-0.678 0.077,-0.683C0.082,-0.688 0.088,-0.692 0.095,-0.696C0.102,-0.699 0.109,-0.7 0.117,-0.7C0.125,-0.7 0.132,-0.699 0.139,-0.696C0.146,-0.692 0.152,-0.688 0.157,-0.683C0.162,-0.678 0.166,-0.672 0.169,-0.665C0.172,-0.658 0.174,-0.651 0.174,-0.643C0.174,-0.635 0.172,-0.628 0.169,-0.621C0.166,-0.614 0.162,-0.608 0.157,-0.603C0.152,-0.598 0.146,-0.594 0.139,-0.591C0.132,-0.587 0.125,-0.586 0.117,-0.586C0.109,-0.586 0.102,-0.587 0.095,-0.591C0.088,-0.594 0.082,-0.598 0.077,-0.603C0.072,-0.608 0.068,-0.614 0.065,-0.621C0.062,-0.628 0.06,-0.635 0.06,-0.643Z" style="fill:#747378;fill-rule:nonzero;"/>
                        </g>
                        <g transform="matrix(4.83436,0,0,4.83436,1967.44,1536.39)">
                            <path d="M0.047,-0.277C0.047,-0.31 0.052,-0.34 0.061,-0.369C0.07,-0.397 0.084,-0.421 0.102,-0.442C0.119,-0.463 0.14,-0.479 0.165,-0.491C0.19,-0.503 0.218,-0.509 0.249,-0.509C0.276,-0.509 0.302,-0.503 0.327,-0.493C0.352,-0.482 0.373,-0.465 0.39,-0.442L0.39,-0.499L0.472,-0.499L0.472,-0C0.472,0.031 0.466,0.057 0.453,0.078C0.441,0.099 0.424,0.116 0.404,0.128C0.384,0.141 0.361,0.15 0.336,0.156C0.31,0.161 0.284,0.164 0.258,0.164C0.243,0.164 0.228,0.163 0.212,0.162C0.196,0.16 0.181,0.158 0.165,0.154C0.149,0.151 0.133,0.147 0.117,0.142C0.102,0.137 0.087,0.131 0.073,0.124L0.103,0.055C0.113,0.06 0.123,0.064 0.134,0.069C0.145,0.073 0.156,0.077 0.169,0.081C0.181,0.084 0.195,0.087 0.209,0.089C0.223,0.092 0.239,0.093 0.256,0.093C0.277,0.093 0.295,0.091 0.312,0.086C0.329,0.082 0.343,0.076 0.354,0.067C0.366,0.058 0.375,0.046 0.381,0.032C0.387,0.019 0.39,0.002 0.39,-0.017L0.39,-0.112C0.373,-0.088 0.352,-0.071 0.327,-0.061C0.302,-0.05 0.276,-0.045 0.249,-0.045C0.218,-0.045 0.19,-0.051 0.165,-0.063C0.14,-0.075 0.119,-0.091 0.102,-0.112C0.084,-0.133 0.07,-0.157 0.061,-0.185C0.052,-0.213 0.047,-0.244 0.047,-0.277ZM0.392,-0.279C0.392,-0.301 0.39,-0.322 0.385,-0.341C0.38,-0.36 0.372,-0.377 0.362,-0.391C0.351,-0.405 0.338,-0.416 0.322,-0.424C0.306,-0.432 0.287,-0.436 0.264,-0.436C0.241,-0.436 0.222,-0.432 0.205,-0.424C0.188,-0.416 0.175,-0.405 0.164,-0.39C0.153,-0.376 0.145,-0.36 0.14,-0.34C0.134,-0.321 0.132,-0.301 0.132,-0.279L0.132,-0.275C0.132,-0.253 0.134,-0.233 0.14,-0.214C0.145,-0.195 0.153,-0.178 0.164,-0.164C0.175,-0.15 0.188,-0.139 0.205,-0.13C0.222,-0.122 0.241,-0.118 0.264,-0.118C0.287,-0.118 0.306,-0.122 0.322,-0.13C0.338,-0.138 0.351,-0.149 0.362,-0.163C0.372,-0.177 0.38,-0.194 0.385,-0.213C0.39,-0.232 0.392,-0.253 0.392,-0.275L0.392,-0.279Z" style="fill:#747378;fill-rule:nonzero;"/>
                        </g>
                        <g transform="matrix(4.83436,0,0,4.83436,1970.09,1536.39)">
                            <path d="M0.075,-0.7L0.157,-0.7L0.157,-0.442C0.174,-0.465 0.195,-0.482 0.22,-0.493C0.245,-0.503 0.273,-0.509 0.303,-0.509C0.331,-0.509 0.355,-0.504 0.376,-0.495C0.397,-0.486 0.414,-0.474 0.428,-0.458C0.442,-0.442 0.453,-0.424 0.46,-0.404C0.467,-0.383 0.47,-0.362 0.47,-0.339L0.47,-0L0.388,-0L0.388,-0.313C0.388,-0.335 0.385,-0.353 0.38,-0.369C0.375,-0.384 0.367,-0.397 0.358,-0.406C0.349,-0.416 0.338,-0.423 0.325,-0.427C0.313,-0.432 0.299,-0.434 0.285,-0.434C0.27,-0.434 0.254,-0.431 0.239,-0.426C0.223,-0.42 0.21,-0.411 0.198,-0.4C0.186,-0.389 0.176,-0.374 0.168,-0.357C0.161,-0.34 0.157,-0.319 0.157,-0.296L0.157,-0L0.075,-0L0.075,-0.7Z" style="fill:#747378;fill-rule:nonzero;"/>
                        </g>
                        <g transform="matrix(4.83436,0,0,4.83436,1972.7,1536.39)">
                            <path d="M0.204,-0.124C0.204,-0.116 0.205,-0.108 0.206,-0.1C0.207,-0.093 0.21,-0.087 0.214,-0.081C0.219,-0.076 0.225,-0.071 0.233,-0.068C0.242,-0.065 0.253,-0.063 0.268,-0.063C0.272,-0.063 0.277,-0.063 0.282,-0.063C0.287,-0.064 0.293,-0.064 0.299,-0.065C0.305,-0.065 0.31,-0.066 0.316,-0.067C0.321,-0.067 0.326,-0.068 0.33,-0.069L0.339,0.003C0.329,0.004 0.32,0.005 0.31,0.006C0.301,0.007 0.292,0.008 0.281,0.009C0.271,0.009 0.26,0.01 0.25,0.01C0.23,0.01 0.212,0.008 0.197,0.004C0.181,-0 0.167,-0.007 0.156,-0.016C0.145,-0.025 0.137,-0.037 0.131,-0.052C0.125,-0.067 0.122,-0.085 0.122,-0.106L0.122,-0.427L0.028,-0.427L0.028,-0.499L0.122,-0.499L0.122,-0.662L0.204,-0.691L0.204,-0.499L0.343,-0.499L0.343,-0.427L0.204,-0.427L0.204,-0.124Z" style="fill:#747378;fill-rule:nonzero;"/>
                        </g>
                        <g transform="matrix(4.83436,0,0,4.83436,1975.36,1536.39)">
                            <path d="M0.204,-0.124C0.204,-0.116 0.205,-0.108 0.206,-0.1C0.207,-0.093 0.21,-0.087 0.214,-0.081C0.219,-0.076 0.225,-0.071 0.233,-0.068C0.242,-0.065 0.253,-0.063 0.268,-0.063C0.272,-0.063 0.277,-0.063 0.282,-0.063C0.287,-0.064 0.293,-0.064 0.299,-0.065C0.305,-0.065 0.31,-0.066 0.316,-0.067C0.321,-0.067 0.326,-0.068 0.33,-0.069L0.339,0.003C0.329,0.004 0.32,0.005 0.31,0.006C0.301,0.007 0.292,0.008 0.281,0.009C0.271,0.009 0.26,0.01 0.25,0.01C0.23,0.01 0.212,0.008 0.197,0.004C0.181,-0 0.167,-0.007 0.156,-0.016C0.145,-0.025 0.137,-0.037 0.131,-0.052C0.125,-0.067 0.122,-0.085 0.122,-0.106L0.122,-0.427L0.028,-0.427L0.028,-0.499L0.122,-0.499L0.122,-0.662L0.204,-0.691L0.204,-0.499L0.343,-0.499L0.343,-0.427L0.204,-0.427L0.204,-0.124Z" style="fill:#747378;fill-rule:nonzero;"/>
                        </g>
                        <g transform="matrix(4.83436,0,0,4.83436,1977.14,1536.39)">
                            <path d="M0.275,-0.509C0.309,-0.509 0.341,-0.502 0.369,-0.49C0.397,-0.477 0.422,-0.459 0.442,-0.436C0.462,-0.413 0.477,-0.385 0.488,-0.354C0.499,-0.322 0.505,-0.287 0.505,-0.249C0.505,-0.212 0.499,-0.177 0.488,-0.145C0.477,-0.114 0.462,-0.086 0.442,-0.063C0.422,-0.04 0.397,-0.022 0.369,-0.01C0.341,0.003 0.309,0.01 0.275,0.01C0.24,0.01 0.209,0.003 0.181,-0.01C0.153,-0.022 0.129,-0.04 0.108,-0.063C0.088,-0.086 0.073,-0.114 0.062,-0.145C0.05,-0.177 0.045,-0.212 0.045,-0.249C0.045,-0.287 0.05,-0.322 0.062,-0.354C0.073,-0.385 0.088,-0.413 0.108,-0.436C0.129,-0.459 0.153,-0.477 0.181,-0.49C0.209,-0.502 0.24,-0.509 0.275,-0.509ZM0.275,-0.062C0.299,-0.062 0.32,-0.067 0.338,-0.077C0.356,-0.087 0.371,-0.1 0.383,-0.117C0.395,-0.134 0.404,-0.154 0.411,-0.176C0.417,-0.198 0.42,-0.222 0.42,-0.246L0.42,-0.252C0.42,-0.277 0.417,-0.301 0.411,-0.323C0.404,-0.346 0.395,-0.365 0.383,-0.382C0.371,-0.399 0.356,-0.412 0.338,-0.422C0.32,-0.432 0.299,-0.437 0.275,-0.437C0.251,-0.437 0.23,-0.432 0.212,-0.422C0.194,-0.412 0.179,-0.399 0.167,-0.382C0.155,-0.365 0.145,-0.346 0.139,-0.323C0.133,-0.301 0.13,-0.277 0.13,-0.252L0.13,-0.246C0.13,-0.222 0.133,-0.198 0.139,-0.176C0.145,-0.154 0.155,-0.134 0.167,-0.117C0.179,-0.1 0.194,-0.087 0.212,-0.077C0.23,-0.067 0.251,-0.062 0.275,-0.062Z" style="fill:#747378;fill-rule:nonzero;"/>
                        </g>
                        <g transform="matrix(4.83436,0,0,4.83436,1980.66,1536.39)">
                            <path d="M0.02,-0.499L0.113,-0.499L0.236,-0.087L0.353,-0.499L0.445,-0.499L0.263,0.075C0.258,0.093 0.25,0.107 0.242,0.118C0.233,0.13 0.223,0.139 0.212,0.145C0.2,0.152 0.188,0.157 0.174,0.159C0.161,0.162 0.146,0.163 0.131,0.163C0.117,0.163 0.103,0.162 0.088,0.161C0.074,0.159 0.058,0.157 0.042,0.155L0.054,0.083C0.061,0.084 0.068,0.085 0.075,0.086C0.081,0.087 0.088,0.088 0.096,0.089C0.104,0.09 0.112,0.09 0.12,0.09C0.138,0.09 0.152,0.086 0.162,0.078C0.172,0.07 0.179,0.058 0.183,0.04L0.188,0.017L0.02,-0.499Z" style="fill:#747378;fill-rule:nonzero;"/>
                        </g>
                        <g transform="matrix(4.83436,0,0,4.83436,1982.88,1536.39)">
                            <path d="M0.275,-0.509C0.309,-0.509 0.341,-0.502 0.369,-0.49C0.397,-0.477 0.422,-0.459 0.442,-0.436C0.462,-0.413 0.477,-0.385 0.488,-0.354C0.499,-0.322 0.505,-0.287 0.505,-0.249C0.505,-0.212 0.499,-0.177 0.488,-0.145C0.477,-0.114 0.462,-0.086 0.442,-0.063C0.422,-0.04 0.397,-0.022 0.369,-0.01C0.341,0.003 0.309,0.01 0.275,0.01C0.24,0.01 0.209,0.003 0.181,-0.01C0.153,-0.022 0.129,-0.04 0.108,-0.063C0.088,-0.086 0.073,-0.114 0.062,-0.145C0.05,-0.177 0.045,-0.212 0.045,-0.249C0.045,-0.287 0.05,-0.322 0.062,-0.354C0.073,-0.385 0.088,-0.413 0.108,-0.436C0.129,-0.459 0.153,-0.477 0.181,-0.49C0.209,-0.502 0.24,-0.509 0.275,-0.509ZM0.275,-0.062C0.299,-0.062 0.32,-0.067 0.338,-0.077C0.356,-0.087 0.371,-0.1 0.383,-0.117C0.395,-0.134 0.404,-0.154 0.411,-0.176C0.417,-0.198 0.42,-0.222 0.42,-0.246L0.42,-0.252C0.42,-0.277 0.417,-0.301 0.411,-0.323C0.404,-0.346 0.395,-0.365 0.383,-0.382C0.371,-0.399 0.356,-0.412 0.338,-0.422C0.32,-0.432 0.299,-0.437 0.275,-0.437C0.251,-0.437 0.23,-0.432 0.212,-0.422C0.194,-0.412 0.179,-0.399 0.167,-0.382C0.155,-0.365 0.145,-0.346 0.139,-0.323C0.133,-0.301 0.13,-0.277 0.13,-0.252L0.13,-0.246C0.13,-0.222 0.133,-0.198 0.139,-0.176C0.145,-0.154 0.155,-0.134 0.167,-0.117C0.179,-0.1 0.194,-0.087 0.212,-0.077C0.23,-0.067 0.251,-0.062 0.275,-0.062Z" style="fill:#747378;fill-rule:nonzero;"/>
                        </g>
                        <g transform="matrix(4.83436,0,0,4.83436,1985.53,1536.39)">
                            <path d="M0.466,-0L0.384,-0L0.384,-0.057C0.367,-0.034 0.346,-0.017 0.321,-0.006C0.296,0.004 0.268,0.01 0.238,0.01C0.21,0.01 0.186,0.005 0.165,-0.004C0.144,-0.013 0.127,-0.025 0.113,-0.041C0.099,-0.057 0.088,-0.075 0.081,-0.095C0.074,-0.116 0.071,-0.137 0.071,-0.16L0.071,-0.499L0.153,-0.499L0.153,-0.186C0.153,-0.164 0.156,-0.145 0.161,-0.13C0.166,-0.115 0.174,-0.102 0.183,-0.093C0.192,-0.083 0.203,-0.076 0.216,-0.072C0.228,-0.067 0.242,-0.065 0.256,-0.065C0.273,-0.065 0.289,-0.068 0.304,-0.073C0.32,-0.079 0.333,-0.088 0.345,-0.099C0.357,-0.111 0.366,-0.125 0.373,-0.142C0.38,-0.159 0.384,-0.18 0.384,-0.203L0.384,-0.499L0.466,-0.499L0.466,-0Z" style="fill:#747378;fill-rule:nonzero;"/>
                        </g>
                        <g transform="matrix(4.83436,0,0,4.83436,1988.15,1536.39)">
                            <path d="M0.33,-0.426L0.317,-0.426C0.296,-0.426 0.276,-0.423 0.256,-0.418C0.237,-0.414 0.22,-0.405 0.206,-0.392C0.191,-0.379 0.179,-0.362 0.17,-0.34C0.162,-0.318 0.157,-0.29 0.157,-0.256L0.157,-0L0.075,-0L0.075,-0.499L0.157,-0.499L0.157,-0.42C0.163,-0.435 0.172,-0.447 0.182,-0.458C0.193,-0.47 0.204,-0.479 0.218,-0.486C0.231,-0.493 0.245,-0.499 0.26,-0.502C0.275,-0.506 0.291,-0.508 0.306,-0.508L0.33,-0.508L0.33,-0.426Z" style="fill:#747378;fill-rule:nonzero;"/>
                        </g>
                        <g transform="matrix(4.83436,0,0,4.83436,1990.63,1536.39)">
                            <path d="M0.192,-0.499L0.291,-0.499L0.291,-0.427L0.192,-0.427L0.192,-0L0.11,-0L0.11,-0.427L0.027,-0.427L0.027,-0.499L0.11,-0.499L0.11,-0.592C0.11,-0.613 0.113,-0.632 0.12,-0.646C0.127,-0.661 0.136,-0.674 0.149,-0.683C0.161,-0.692 0.175,-0.699 0.192,-0.703C0.209,-0.707 0.227,-0.709 0.247,-0.709C0.267,-0.709 0.284,-0.708 0.297,-0.706C0.311,-0.705 0.321,-0.703 0.327,-0.702L0.321,-0.632C0.316,-0.632 0.31,-0.633 0.304,-0.633C0.298,-0.634 0.291,-0.634 0.284,-0.635C0.278,-0.635 0.271,-0.635 0.265,-0.636C0.259,-0.636 0.254,-0.636 0.25,-0.636C0.238,-0.636 0.229,-0.635 0.221,-0.631C0.214,-0.628 0.208,-0.623 0.203,-0.618C0.199,-0.612 0.196,-0.606 0.194,-0.599C0.193,-0.591 0.192,-0.584 0.192,-0.576L0.192,-0.499ZM0.476,-0L0.394,-0L0.394,-0.499L0.476,-0.499L0.476,-0ZM0.379,-0.643C0.379,-0.651 0.38,-0.658 0.384,-0.665C0.387,-0.672 0.391,-0.678 0.396,-0.683C0.401,-0.688 0.407,-0.692 0.414,-0.696C0.421,-0.699 0.428,-0.7 0.436,-0.7C0.444,-0.7 0.451,-0.699 0.458,-0.696C0.465,-0.692 0.471,-0.688 0.476,-0.683C0.481,-0.678 0.485,-0.672 0.488,-0.665C0.491,-0.658 0.493,-0.651 0.493,-0.643C0.493,-0.635 0.491,-0.628 0.488,-0.621C0.485,-0.614 0.481,-0.608 0.476,-0.603C0.471,-0.598 0.465,-0.594 0.458,-0.591C0.451,-0.587 0.444,-0.586 0.436,-0.586C0.428,-0.586 0.421,-0.587 0.414,-0.591C0.407,-0.594 0.401,-0.598 0.396,-0.603C0.391,-0.608 0.387,-0.614 0.384,-0.621C0.38,-0.628 0.379,-0.635 0.379,-0.643Z" style="fill:#747378;fill-rule:nonzero;"/>
                        </g>
                        <g transform="matrix(4.83436,0,0,4.83436,1993.29,1536.39)">
                            <path d="M0.075,-0.499L0.157,-0.499L0.157,-0.442C0.174,-0.465 0.195,-0.482 0.22,-0.493C0.245,-0.503 0.273,-0.509 0.303,-0.509C0.331,-0.509 0.355,-0.504 0.376,-0.495C0.397,-0.486 0.414,-0.474 0.428,-0.458C0.442,-0.442 0.453,-0.424 0.46,-0.404C0.467,-0.383 0.47,-0.362 0.47,-0.339L0.47,-0L0.388,-0L0.388,-0.313C0.388,-0.335 0.385,-0.353 0.38,-0.369C0.375,-0.384 0.367,-0.397 0.358,-0.406C0.349,-0.416 0.338,-0.423 0.325,-0.427C0.313,-0.432 0.299,-0.434 0.285,-0.434C0.27,-0.434 0.254,-0.431 0.239,-0.426C0.224,-0.42 0.21,-0.411 0.198,-0.4C0.186,-0.389 0.176,-0.374 0.168,-0.357C0.161,-0.34 0.157,-0.319 0.157,-0.296L0.157,-0L0.075,-0L0.075,-0.499Z" style="fill:#747378;fill-rule:nonzero;"/>
                        </g>
                        <g transform="matrix(4.83436,0,0,4.83436,1995.91,1536.39)">
                            <path d="M0.359,-0.05C0.344,-0.033 0.324,-0.019 0.3,-0.007C0.275,0.004 0.245,0.01 0.212,0.01C0.187,0.01 0.164,0.006 0.143,-0.001C0.122,-0.008 0.104,-0.018 0.088,-0.031C0.072,-0.044 0.06,-0.06 0.051,-0.078C0.042,-0.097 0.038,-0.118 0.038,-0.141C0.038,-0.161 0.041,-0.178 0.048,-0.195C0.054,-0.211 0.063,-0.225 0.074,-0.237C0.086,-0.249 0.1,-0.259 0.116,-0.266C0.132,-0.274 0.151,-0.279 0.171,-0.282L0.347,-0.306L0.347,-0.338C0.347,-0.357 0.344,-0.373 0.338,-0.385C0.333,-0.398 0.325,-0.409 0.315,-0.416C0.305,-0.424 0.293,-0.429 0.28,-0.432C0.266,-0.435 0.251,-0.437 0.236,-0.437C0.208,-0.437 0.182,-0.433 0.157,-0.425C0.133,-0.417 0.111,-0.408 0.092,-0.398L0.061,-0.463C0.09,-0.479 0.12,-0.491 0.151,-0.498C0.183,-0.505 0.214,-0.509 0.244,-0.509C0.305,-0.509 0.351,-0.495 0.382,-0.468C0.414,-0.44 0.429,-0.4 0.429,-0.347L0.429,-0.117C0.429,-0.101 0.432,-0.087 0.439,-0.075C0.445,-0.064 0.456,-0.055 0.47,-0.049L0.424,0.01C0.408,0.006 0.395,-0.001 0.384,-0.011C0.372,-0.021 0.364,-0.033 0.36,-0.047L0.359,-0.05ZM0.213,-0.222C0.199,-0.22 0.187,-0.217 0.176,-0.214C0.164,-0.21 0.155,-0.205 0.147,-0.199C0.139,-0.193 0.133,-0.186 0.129,-0.177C0.124,-0.168 0.122,-0.158 0.122,-0.145C0.122,-0.13 0.125,-0.117 0.13,-0.106C0.136,-0.095 0.143,-0.085 0.153,-0.077C0.162,-0.069 0.173,-0.063 0.186,-0.059C0.198,-0.055 0.211,-0.053 0.225,-0.053C0.24,-0.053 0.255,-0.055 0.27,-0.06C0.285,-0.064 0.298,-0.07 0.309,-0.078C0.32,-0.086 0.33,-0.096 0.337,-0.107C0.344,-0.118 0.347,-0.131 0.347,-0.146L0.347,-0.242L0.213,-0.222Z" style="fill:#747378;fill-rule:nonzero;"/>
                        </g>
                        <g transform="matrix(4.83436,0,0,4.83436,1998.34,1536.39)">
                            <path d="M0.075,-0.499L0.157,-0.499L0.157,-0.442C0.174,-0.465 0.195,-0.482 0.22,-0.493C0.245,-0.503 0.273,-0.509 0.303,-0.509C0.331,-0.509 0.355,-0.504 0.376,-0.495C0.397,-0.486 0.414,-0.474 0.428,-0.458C0.442,-0.442 0.453,-0.424 0.46,-0.404C0.467,-0.383 0.47,-0.362 0.47,-0.339L0.47,-0L0.388,-0L0.388,-0.313C0.388,-0.335 0.385,-0.353 0.38,-0.369C0.375,-0.384 0.367,-0.397 0.358,-0.406C0.349,-0.416 0.338,-0.423 0.325,-0.427C0.313,-0.432 0.299,-0.434 0.285,-0.434C0.27,-0.434 0.254,-0.431 0.239,-0.426C0.224,-0.42 0.21,-0.411 0.198,-0.4C0.186,-0.389 0.176,-0.374 0.168,-0.357C0.161,-0.34 0.157,-0.319 0.157,-0.296L0.157,-0L0.075,-0L0.075,-0.499Z" style="fill:#747378;fill-rule:nonzero;"/>
                        </g>
                        <g transform="matrix(4.83436,0,0,4.83436,2000.96,1536.39)">
                            <path d="M0.13,-0.247C0.13,-0.222 0.133,-0.198 0.139,-0.176C0.145,-0.153 0.154,-0.134 0.167,-0.117C0.179,-0.1 0.194,-0.087 0.212,-0.077C0.23,-0.067 0.251,-0.062 0.275,-0.062C0.291,-0.062 0.305,-0.064 0.318,-0.069C0.331,-0.073 0.343,-0.079 0.354,-0.086C0.364,-0.094 0.374,-0.103 0.382,-0.113C0.39,-0.123 0.398,-0.134 0.404,-0.146L0.472,-0.107C0.464,-0.089 0.453,-0.073 0.44,-0.059C0.427,-0.044 0.411,-0.032 0.395,-0.022C0.378,-0.012 0.359,-0.004 0.339,0.001C0.319,0.007 0.297,0.01 0.275,0.01C0.24,0.01 0.209,0.003 0.181,-0.01C0.153,-0.022 0.129,-0.04 0.108,-0.063C0.088,-0.086 0.073,-0.113 0.062,-0.145C0.05,-0.177 0.045,-0.211 0.045,-0.249C0.045,-0.287 0.05,-0.322 0.062,-0.354C0.073,-0.385 0.088,-0.413 0.108,-0.436C0.129,-0.459 0.153,-0.477 0.181,-0.49C0.209,-0.502 0.24,-0.509 0.275,-0.509C0.297,-0.509 0.319,-0.506 0.339,-0.5C0.359,-0.495 0.378,-0.487 0.395,-0.477C0.411,-0.467 0.427,-0.455 0.44,-0.44C0.453,-0.426 0.464,-0.41 0.472,-0.392L0.404,-0.353C0.398,-0.365 0.39,-0.376 0.382,-0.386C0.374,-0.396 0.364,-0.405 0.354,-0.413C0.343,-0.42 0.331,-0.426 0.318,-0.43C0.305,-0.435 0.291,-0.437 0.275,-0.437C0.251,-0.437 0.23,-0.432 0.212,-0.422C0.194,-0.412 0.179,-0.399 0.167,-0.382C0.154,-0.365 0.145,-0.346 0.139,-0.323C0.133,-0.301 0.13,-0.277 0.13,-0.252L0.13,-0.247Z" style="fill:#747378;fill-rule:nonzero;"/>
                        </g>
                        <g transform="matrix(4.83436,0,0,4.83436,2003.43,1536.39)">
                            <path d="M0.157,-0L0.075,-0L0.075,-0.499L0.157,-0.499L0.157,-0ZM0.06,-0.643C0.06,-0.651 0.062,-0.658 0.065,-0.665C0.068,-0.672 0.072,-0.678 0.077,-0.683C0.082,-0.688 0.088,-0.692 0.095,-0.696C0.102,-0.699 0.109,-0.7 0.117,-0.7C0.125,-0.7 0.132,-0.699 0.139,-0.696C0.146,-0.692 0.152,-0.688 0.157,-0.683C0.162,-0.678 0.166,-0.672 0.169,-0.665C0.172,-0.658 0.174,-0.651 0.174,-0.643C0.174,-0.635 0.172,-0.628 0.169,-0.621C0.166,-0.614 0.162,-0.608 0.157,-0.603C0.152,-0.598 0.146,-0.594 0.139,-0.591C0.132,-0.587 0.125,-0.586 0.117,-0.586C0.109,-0.586 0.102,-0.587 0.095,-0.591C0.088,-0.594 0.082,-0.598 0.077,-0.603C0.072,-0.608 0.068,-0.614 0.065,-0.621C0.062,-0.628 0.06,-0.635 0.06,-0.643Z" style="fill:#747378;fill-rule:nonzero;"/>
                        </g>
                        <g transform="matrix(4.83436,0,0,4.83436,2004.55,1536.39)">
                            <path d="M0.359,-0.05C0.344,-0.033 0.324,-0.019 0.3,-0.007C0.275,0.004 0.245,0.01 0.212,0.01C0.187,0.01 0.164,0.006 0.143,-0.001C0.122,-0.008 0.104,-0.018 0.088,-0.031C0.072,-0.044 0.06,-0.06 0.051,-0.078C0.042,-0.097 0.038,-0.118 0.038,-0.141C0.038,-0.161 0.041,-0.178 0.048,-0.195C0.054,-0.211 0.063,-0.225 0.074,-0.237C0.086,-0.249 0.1,-0.259 0.116,-0.266C0.132,-0.274 0.151,-0.279 0.171,-0.282L0.347,-0.306L0.347,-0.338C0.347,-0.357 0.344,-0.373 0.338,-0.385C0.333,-0.398 0.325,-0.409 0.315,-0.416C0.305,-0.424 0.293,-0.429 0.28,-0.432C0.266,-0.435 0.251,-0.437 0.236,-0.437C0.208,-0.437 0.182,-0.433 0.157,-0.425C0.133,-0.417 0.111,-0.408 0.092,-0.398L0.061,-0.463C0.09,-0.479 0.12,-0.491 0.151,-0.498C0.183,-0.505 0.214,-0.509 0.244,-0.509C0.305,-0.509 0.351,-0.495 0.382,-0.468C0.414,-0.44 0.429,-0.4 0.429,-0.347L0.429,-0.117C0.429,-0.101 0.432,-0.087 0.439,-0.075C0.445,-0.064 0.456,-0.055 0.47,-0.049L0.424,0.01C0.408,0.006 0.395,-0.001 0.384,-0.011C0.372,-0.021 0.364,-0.033 0.36,-0.047L0.359,-0.05ZM0.213,-0.222C0.199,-0.22 0.187,-0.217 0.176,-0.214C0.164,-0.21 0.155,-0.205 0.147,-0.199C0.139,-0.193 0.133,-0.186 0.129,-0.177C0.124,-0.168 0.122,-0.158 0.122,-0.145C0.122,-0.13 0.125,-0.117 0.13,-0.106C0.136,-0.095 0.143,-0.085 0.153,-0.077C0.162,-0.069 0.173,-0.063 0.186,-0.059C0.198,-0.055 0.211,-0.053 0.225,-0.053C0.24,-0.053 0.255,-0.055 0.27,-0.06C0.285,-0.064 0.298,-0.07 0.309,-0.078C0.32,-0.086 0.33,-0.096 0.337,-0.107C0.344,-0.118 0.347,-0.131 0.347,-0.146L0.347,-0.242L0.213,-0.222Z" style="fill:#747378;fill-rule:nonzero;"/>
                        </g>
                        <g transform="matrix(4.83436,0,0,4.83436,2006.98,1536.39)">
                            <path d="M0.072,-0.7L0.154,-0.7L0.154,-0.112C0.154,-0.104 0.155,-0.097 0.156,-0.09C0.157,-0.084 0.16,-0.079 0.164,-0.075C0.167,-0.07 0.172,-0.067 0.178,-0.065C0.185,-0.063 0.193,-0.062 0.202,-0.062C0.213,-0.062 0.222,-0.062 0.23,-0.063C0.239,-0.064 0.246,-0.064 0.253,-0.065L0.261,0.004C0.252,0.005 0.242,0.006 0.233,0.007C0.225,0.007 0.216,0.008 0.206,0.009C0.196,0.009 0.187,0.01 0.178,0.01C0.164,0.01 0.15,0.008 0.137,0.005C0.124,0.001 0.112,-0.004 0.103,-0.012C0.093,-0.02 0.086,-0.03 0.08,-0.042C0.075,-0.055 0.072,-0.07 0.072,-0.088L0.072,-0.7Z" style="fill:#747378;fill-rule:nonzero;"/>
                        </g>
                        <g transform="matrix(4.83436,0,0,4.83436,2009.02,1536.39)">
                            <path d="M0.192,-0.499L0.291,-0.499L0.291,-0.427L0.192,-0.427L0.192,-0L0.11,-0L0.11,-0.427L0.027,-0.427L0.027,-0.499L0.11,-0.499L0.11,-0.592C0.11,-0.613 0.113,-0.632 0.12,-0.646C0.127,-0.661 0.136,-0.674 0.149,-0.683C0.161,-0.692 0.175,-0.699 0.192,-0.703C0.209,-0.707 0.227,-0.709 0.247,-0.709C0.267,-0.709 0.284,-0.708 0.297,-0.706C0.311,-0.705 0.321,-0.703 0.327,-0.702L0.321,-0.632C0.316,-0.632 0.31,-0.633 0.304,-0.633C0.298,-0.634 0.291,-0.634 0.284,-0.635C0.278,-0.635 0.271,-0.635 0.265,-0.636C0.259,-0.636 0.254,-0.636 0.25,-0.636C0.238,-0.636 0.229,-0.635 0.221,-0.631C0.214,-0.628 0.208,-0.623 0.203,-0.618C0.199,-0.612 0.196,-0.606 0.194,-0.599C0.193,-0.591 0.192,-0.584 0.192,-0.576L0.192,-0.499Z" style="fill:#747378;fill-rule:nonzero;"/>
                        </g>
                        <g transform="matrix(4.83436,0,0,4.83436,2010.56,1536.39)">
                            <path d="M0.33,-0.426L0.317,-0.426C0.296,-0.426 0.276,-0.423 0.256,-0.418C0.237,-0.414 0.22,-0.405 0.206,-0.392C0.191,-0.379 0.179,-0.362 0.17,-0.34C0.162,-0.318 0.157,-0.29 0.157,-0.256L0.157,-0L0.075,-0L0.075,-0.499L0.157,-0.499L0.157,-0.42C0.163,-0.435 0.172,-0.447 0.182,-0.458C0.193,-0.47 0.204,-0.479 0.218,-0.486C0.231,-0.493 0.245,-0.499 0.26,-0.502C0.275,-0.506 0.291,-0.508 0.306,-0.508L0.33,-0.508L0.33,-0.426Z" style="fill:#747378;fill-rule:nonzero;"/>
                        </g>
                        <g transform="matrix(4.83436,0,0,4.83436,2012.2,1536.39)">
                            <path d="M0.131,-0.224C0.132,-0.201 0.137,-0.179 0.145,-0.159C0.153,-0.139 0.163,-0.122 0.177,-0.108C0.191,-0.093 0.206,-0.082 0.225,-0.074C0.243,-0.066 0.264,-0.062 0.286,-0.062C0.314,-0.062 0.338,-0.067 0.359,-0.076C0.38,-0.085 0.399,-0.097 0.417,-0.111L0.459,-0.052C0.437,-0.034 0.411,-0.019 0.381,-0.008C0.352,0.004 0.319,0.01 0.282,0.01C0.246,0.01 0.213,0.003 0.184,-0.01C0.155,-0.022 0.13,-0.04 0.109,-0.063C0.088,-0.086 0.073,-0.114 0.062,-0.145C0.05,-0.177 0.045,-0.212 0.045,-0.249C0.045,-0.287 0.05,-0.322 0.061,-0.354C0.072,-0.385 0.088,-0.413 0.107,-0.436C0.127,-0.459 0.151,-0.477 0.179,-0.49C0.206,-0.502 0.237,-0.509 0.271,-0.509C0.304,-0.509 0.333,-0.502 0.36,-0.49C0.386,-0.477 0.409,-0.459 0.427,-0.436C0.446,-0.413 0.46,-0.385 0.47,-0.354C0.48,-0.322 0.485,-0.287 0.485,-0.25L0.485,-0.224L0.131,-0.224ZM0.268,-0.437C0.247,-0.437 0.229,-0.433 0.212,-0.425C0.196,-0.417 0.182,-0.406 0.171,-0.392C0.159,-0.378 0.15,-0.363 0.143,-0.345C0.137,-0.327 0.133,-0.309 0.132,-0.29L0.396,-0.29C0.395,-0.309 0.392,-0.328 0.386,-0.345C0.38,-0.363 0.372,-0.379 0.361,-0.392C0.35,-0.406 0.337,-0.417 0.321,-0.425C0.306,-0.433 0.288,-0.437 0.268,-0.437Z" style="fill:#747378;fill-rule:nonzero;"/>
                        </g>
                        <g transform="matrix(4.83436,0,0,4.83436,2014.73,1536.39)">
                            <path d="M0.131,-0.224C0.132,-0.201 0.137,-0.179 0.145,-0.159C0.153,-0.139 0.163,-0.122 0.177,-0.108C0.191,-0.093 0.206,-0.082 0.225,-0.074C0.243,-0.066 0.264,-0.062 0.286,-0.062C0.314,-0.062 0.338,-0.067 0.359,-0.076C0.38,-0.085 0.399,-0.097 0.417,-0.111L0.459,-0.052C0.437,-0.034 0.411,-0.019 0.381,-0.008C0.352,0.004 0.319,0.01 0.282,0.01C0.246,0.01 0.213,0.003 0.184,-0.01C0.155,-0.022 0.13,-0.04 0.109,-0.063C0.088,-0.086 0.073,-0.114 0.062,-0.145C0.05,-0.177 0.045,-0.212 0.045,-0.249C0.045,-0.287 0.05,-0.322 0.061,-0.354C0.072,-0.385 0.088,-0.413 0.107,-0.436C0.127,-0.459 0.151,-0.477 0.179,-0.49C0.206,-0.502 0.237,-0.509 0.271,-0.509C0.304,-0.509 0.333,-0.502 0.36,-0.49C0.386,-0.477 0.409,-0.459 0.427,-0.436C0.446,-0.413 0.46,-0.385 0.47,-0.354C0.48,-0.322 0.485,-0.287 0.485,-0.25L0.485,-0.224L0.131,-0.224ZM0.268,-0.437C0.247,-0.437 0.229,-0.433 0.212,-0.425C0.196,-0.417 0.182,-0.406 0.171,-0.392C0.159,-0.378 0.15,-0.363 0.143,-0.345C0.137,-0.327 0.133,-0.309 0.132,-0.29L0.396,-0.29C0.395,-0.309 0.392,-0.328 0.386,-0.345C0.38,-0.363 0.372,-0.379 0.361,-0.392C0.35,-0.406 0.337,-0.417 0.321,-0.425C0.306,-0.433 0.288,-0.437 0.268,-0.437Z" style="fill:#747378;fill-rule:nonzero;"/>
                        </g>
                        <g transform="matrix(4.83436,0,0,4.83436,2017.26,1536.39)">
                            <path d="M0.404,-0.057C0.389,-0.037 0.369,-0.02 0.344,-0.008C0.319,0.004 0.29,0.01 0.258,0.01C0.226,0.01 0.196,0.003 0.17,-0.01C0.144,-0.022 0.122,-0.04 0.104,-0.063C0.085,-0.086 0.071,-0.113 0.061,-0.145C0.051,-0.177 0.046,-0.211 0.046,-0.249C0.046,-0.287 0.051,-0.322 0.061,-0.353C0.071,-0.385 0.085,-0.412 0.104,-0.436C0.122,-0.459 0.144,-0.477 0.17,-0.49C0.196,-0.502 0.226,-0.509 0.258,-0.509C0.29,-0.509 0.319,-0.503 0.344,-0.491C0.369,-0.479 0.389,-0.462 0.404,-0.442L0.404,-0.7L0.486,-0.7L0.486,-0L0.404,-0L0.404,-0.057ZM0.131,-0.247C0.131,-0.221 0.134,-0.197 0.14,-0.174C0.146,-0.152 0.155,-0.132 0.167,-0.116C0.18,-0.1 0.194,-0.087 0.212,-0.077C0.229,-0.068 0.25,-0.063 0.273,-0.063C0.295,-0.063 0.314,-0.067 0.33,-0.074C0.347,-0.082 0.361,-0.092 0.372,-0.105C0.383,-0.118 0.391,-0.133 0.396,-0.151C0.402,-0.169 0.405,-0.188 0.405,-0.209L0.405,-0.29C0.405,-0.311 0.402,-0.33 0.396,-0.348C0.391,-0.366 0.383,-0.381 0.372,-0.394C0.361,-0.407 0.347,-0.417 0.33,-0.425C0.314,-0.432 0.295,-0.436 0.273,-0.436C0.25,-0.436 0.229,-0.431 0.212,-0.422C0.194,-0.412 0.18,-0.399 0.167,-0.383C0.155,-0.367 0.146,-0.347 0.14,-0.325C0.134,-0.302 0.131,-0.278 0.131,-0.252L0.131,-0.247Z" style="fill:#747378;fill-rule:nonzero;"/>
                        </g>
                        <g transform="matrix(4.83436,0,0,4.83436,2019.97,1536.39)">
                            <path d="M0.275,-0.509C0.309,-0.509 0.341,-0.502 0.369,-0.49C0.397,-0.477 0.422,-0.459 0.442,-0.436C0.462,-0.413 0.477,-0.385 0.488,-0.354C0.499,-0.322 0.505,-0.287 0.505,-0.249C0.505,-0.212 0.499,-0.177 0.488,-0.145C0.477,-0.114 0.462,-0.086 0.442,-0.063C0.422,-0.04 0.397,-0.022 0.369,-0.01C0.341,0.003 0.309,0.01 0.275,0.01C0.24,0.01 0.209,0.003 0.181,-0.01C0.153,-0.022 0.129,-0.04 0.108,-0.063C0.088,-0.086 0.073,-0.114 0.062,-0.145C0.05,-0.177 0.045,-0.212 0.045,-0.249C0.045,-0.287 0.05,-0.322 0.062,-0.354C0.073,-0.385 0.088,-0.413 0.108,-0.436C0.129,-0.459 0.153,-0.477 0.181,-0.49C0.209,-0.502 0.24,-0.509 0.275,-0.509ZM0.275,-0.062C0.299,-0.062 0.32,-0.067 0.338,-0.077C0.356,-0.087 0.371,-0.1 0.383,-0.117C0.395,-0.134 0.404,-0.154 0.411,-0.176C0.417,-0.198 0.42,-0.222 0.42,-0.246L0.42,-0.252C0.42,-0.277 0.417,-0.301 0.411,-0.323C0.404,-0.346 0.395,-0.365 0.383,-0.382C0.371,-0.399 0.356,-0.412 0.338,-0.422C0.32,-0.432 0.299,-0.437 0.275,-0.437C0.251,-0.437 0.23,-0.432 0.212,-0.422C0.194,-0.412 0.179,-0.399 0.167,-0.382C0.155,-0.365 0.145,-0.346 0.139,-0.323C0.133,-0.301 0.13,-0.277 0.13,-0.252L0.13,-0.246C0.13,-0.222 0.133,-0.198 0.139,-0.176C0.145,-0.154 0.155,-0.134 0.167,-0.117C0.179,-0.1 0.194,-0.087 0.212,-0.077C0.23,-0.067 0.251,-0.062 0.275,-0.062Z" style="fill:#747378;fill-rule:nonzero;"/>
                        </g>
                        <g transform="matrix(4.83436,0,0,4.83436,2022.63,1536.39)">
                            <path d="M0.449,-0L0.367,-0L0.367,-0.314C0.367,-0.336 0.365,-0.355 0.359,-0.37C0.354,-0.385 0.347,-0.398 0.338,-0.407C0.329,-0.417 0.318,-0.424 0.306,-0.428C0.294,-0.432 0.281,-0.434 0.267,-0.434C0.253,-0.434 0.24,-0.431 0.227,-0.426C0.214,-0.421 0.202,-0.412 0.192,-0.401C0.181,-0.389 0.173,-0.375 0.167,-0.358C0.16,-0.34 0.157,-0.319 0.157,-0.295L0.157,-0L0.075,-0L0.075,-0.499L0.157,-0.499L0.157,-0.442C0.174,-0.465 0.193,-0.482 0.215,-0.493C0.237,-0.503 0.261,-0.509 0.288,-0.509C0.299,-0.509 0.311,-0.507 0.324,-0.504C0.337,-0.501 0.35,-0.496 0.363,-0.49C0.375,-0.483 0.387,-0.475 0.397,-0.464C0.408,-0.454 0.416,-0.441 0.423,-0.426C0.432,-0.441 0.442,-0.454 0.454,-0.465C0.466,-0.475 0.479,-0.484 0.492,-0.49C0.505,-0.497 0.519,-0.501 0.533,-0.504C0.547,-0.507 0.561,-0.509 0.575,-0.509C0.602,-0.509 0.626,-0.504 0.647,-0.495C0.668,-0.486 0.685,-0.474 0.7,-0.458C0.714,-0.443 0.725,-0.425 0.732,-0.405C0.74,-0.385 0.743,-0.364 0.743,-0.342L0.743,-0L0.661,-0L0.661,-0.314C0.661,-0.336 0.658,-0.355 0.653,-0.37C0.647,-0.385 0.64,-0.398 0.63,-0.407C0.621,-0.417 0.61,-0.424 0.598,-0.428C0.585,-0.432 0.572,-0.434 0.559,-0.434C0.545,-0.434 0.532,-0.431 0.519,-0.426C0.506,-0.421 0.494,-0.412 0.484,-0.401C0.473,-0.389 0.465,-0.375 0.459,-0.358C0.452,-0.34 0.449,-0.319 0.449,-0.295L0.449,-0Z" style="fill:#747378;fill-rule:nonzero;"/>
                        </g>
                    </g>
                </g>
                <g transform="matrix(2.73569,0,0,2.73569,-345.704,-2097.39)">
                    <g transform="matrix(1.02021,0,0,1.02021,63.4321,-29.8522)">
                        <circle cx="1236.86" cy="1328.22" r="71.627" style="fill:#0083ff;"/>
                    </g>
                    <g transform="matrix(0.748677,0,0,0.748677,1032.66,1212.11)">
                        <path d="M501.141,38.955L389.141,0.853C385.813,-0.299 382.187,-0.299 378.859,0.853L266.859,38.955C260.352,41.152 256,47.253 256,54.101L256,139.819C256,244.437 372.779,295.296 377.749,297.408C381.76,299.093 386.24,299.093 390.251,297.408C395.221,295.296 512,244.437 512,139.819L512,54.101C512,47.253 507.648,41.152 501.141,38.955ZM448.349,119.851L389.682,194.517C382.215,204.053 368.221,205.44 359.047,197.547L321.714,165.547C312.754,157.888 311.709,144.405 319.41,135.467C327.069,126.528 340.551,125.504 349.469,133.163L369.906,150.677L414.813,93.525C422.087,84.267 435.485,82.624 444.765,89.941C454.023,97.173 455.645,110.592 448.349,119.851Z" style="fill-rule:nonzero;"/>
                        <path d="M511.64,8.094L399.64,-30.008C389.574,-33.492 378.426,-33.492 368.196,-29.951C368.36,-30.008 256.36,8.094 256.36,8.094C236.649,14.75 223.402,33.284 223.402,54.101C223.402,54.101 223.402,139.819 223.402,139.819C223.402,190.76 245.644,231.438 273.325,261.828C312.239,304.55 361.599,325.964 365.002,327.41C365.041,327.427 365.081,327.444 365.121,327.46C377.234,332.551 390.766,332.551 402.879,327.46C402.919,327.444 402.959,327.427 402.998,327.41C406.401,325.964 455.761,304.55 494.675,261.828C522.356,231.438 544.598,190.76 544.598,139.819L544.598,54.101C544.598,33.284 531.351,14.75 511.571,8.07L511.64,8.094ZM501.141,38.955L389.141,0.853C385.813,-0.299 382.187,-0.299 378.859,0.853L266.859,38.955C260.352,41.152 256,47.253 256,54.101L256,139.819C256,244.437 372.779,295.296 377.749,297.408C381.76,299.093 386.24,299.093 390.251,297.408C395.221,295.296 512,244.437 512,139.819L512,54.101C512,47.253 507.648,41.152 501.141,38.955ZM448.349,119.851L389.682,194.517C382.215,204.053 368.221,205.44 359.047,197.547L321.714,165.547C312.754,157.888 311.709,144.405 319.41,135.467C327.069,126.528 340.551,125.504 349.469,133.163L369.906,150.677L414.813,93.525C422.087,84.267 435.485,82.624 444.765,89.941C454.023,97.173 455.645,110.592 448.349,119.851Z" style="fill:#fff;"/>
                    </g>
                </g>
                <g transform="matrix(1.71535,0,0,1.71535,-3727.45,1203.09)">
                    <g transform="matrix(74.2652,0,0,74.2652,3111.27,384.736)">
                        <path d="M0.385,-0.7C0.414,-0.7 0.441,-0.696 0.466,-0.687C0.491,-0.679 0.513,-0.666 0.532,-0.65C0.55,-0.634 0.565,-0.615 0.575,-0.593C0.586,-0.57 0.591,-0.545 0.591,-0.517C0.591,-0.503 0.589,-0.489 0.585,-0.475C0.581,-0.461 0.575,-0.448 0.567,-0.435C0.559,-0.423 0.55,-0.412 0.539,-0.402C0.528,-0.392 0.515,-0.383 0.501,-0.377C0.512,-0.373 0.526,-0.367 0.541,-0.359C0.556,-0.352 0.57,-0.341 0.584,-0.327C0.598,-0.313 0.609,-0.297 0.619,-0.277C0.628,-0.257 0.633,-0.232 0.633,-0.204C0.633,-0.169 0.626,-0.138 0.613,-0.112C0.599,-0.087 0.581,-0.065 0.558,-0.049C0.535,-0.032 0.508,-0.02 0.477,-0.012C0.447,-0.004 0.414,-0 0.38,-0L0.073,-0L0.073,-0.7L0.385,-0.7ZM0.488,-0.209C0.488,-0.228 0.484,-0.243 0.478,-0.255C0.471,-0.267 0.462,-0.277 0.45,-0.284C0.439,-0.291 0.426,-0.296 0.412,-0.299C0.398,-0.302 0.383,-0.303 0.368,-0.303L0.215,-0.303L0.215,-0.112L0.368,-0.112C0.383,-0.112 0.398,-0.113 0.412,-0.116C0.426,-0.119 0.439,-0.124 0.45,-0.132C0.462,-0.139 0.471,-0.149 0.478,-0.162C0.484,-0.174 0.488,-0.19 0.488,-0.209ZM0.448,-0.503C0.448,-0.53 0.44,-0.55 0.423,-0.565C0.406,-0.58 0.379,-0.588 0.341,-0.588L0.215,-0.588L0.215,-0.423L0.341,-0.423C0.378,-0.423 0.405,-0.43 0.422,-0.444C0.44,-0.458 0.448,-0.478 0.448,-0.503Z" style="fill-rule:nonzero;"/>
                    </g>
                    <g transform="matrix(74.2652,0,0,74.2652,3174.11,384.736)">
                        <path d="M0.038,-0.35C0.038,-0.4 0.046,-0.447 0.061,-0.491C0.076,-0.535 0.098,-0.573 0.126,-0.605C0.154,-0.638 0.189,-0.663 0.229,-0.682C0.269,-0.701 0.315,-0.71 0.365,-0.71C0.402,-0.71 0.435,-0.705 0.467,-0.696C0.498,-0.686 0.526,-0.673 0.551,-0.656C0.575,-0.639 0.597,-0.618 0.615,-0.593C0.633,-0.569 0.647,-0.542 0.657,-0.511L0.521,-0.466C0.517,-0.479 0.511,-0.492 0.502,-0.506C0.494,-0.52 0.483,-0.532 0.47,-0.544C0.457,-0.555 0.442,-0.564 0.425,-0.571C0.407,-0.578 0.388,-0.582 0.366,-0.582C0.334,-0.582 0.306,-0.575 0.283,-0.562C0.26,-0.549 0.242,-0.532 0.227,-0.51C0.212,-0.488 0.202,-0.464 0.195,-0.436C0.188,-0.409 0.184,-0.381 0.184,-0.352L0.184,-0.348C0.184,-0.319 0.188,-0.291 0.195,-0.263C0.202,-0.236 0.212,-0.211 0.227,-0.19C0.242,-0.168 0.26,-0.151 0.283,-0.138C0.306,-0.125 0.334,-0.118 0.366,-0.118C0.388,-0.118 0.407,-0.122 0.425,-0.129C0.442,-0.136 0.457,-0.145 0.47,-0.156C0.483,-0.168 0.494,-0.18 0.502,-0.194C0.511,-0.208 0.517,-0.221 0.521,-0.234L0.657,-0.189C0.647,-0.159 0.633,-0.131 0.615,-0.107C0.597,-0.083 0.575,-0.062 0.551,-0.044C0.526,-0.027 0.498,-0.013 0.467,-0.004C0.435,0.005 0.402,0.01 0.365,0.01C0.315,0.01 0.269,0 0.229,-0.018C0.189,-0.037 0.154,-0.062 0.126,-0.095C0.098,-0.127 0.076,-0.165 0.061,-0.209C0.046,-0.253 0.038,-0.3 0.038,-0.35Z" style="fill-rule:nonzero;"/>
                    </g>
                    <g transform="matrix(74.2652,0,0,74.2652,3238.44,384.736)">
                        <path d="M0.215,-0.536L0.215,-0L0.073,-0L0.073,-0.7L0.273,-0.7L0.553,-0.23L0.553,-0.7L0.695,-0.7L0.695,-0L0.539,-0L0.215,-0.536Z" style="fill-rule:nonzero;"/>
                    </g>
                    <g transform="matrix(74.2652,0,0,74.2652,3308.86,384.736)">
                        <path d="M0.038,-0.35C0.038,-0.4 0.046,-0.447 0.061,-0.491C0.076,-0.535 0.098,-0.573 0.126,-0.605C0.154,-0.638 0.189,-0.663 0.229,-0.682C0.269,-0.701 0.315,-0.71 0.365,-0.71C0.402,-0.71 0.435,-0.705 0.467,-0.696C0.498,-0.686 0.526,-0.673 0.551,-0.656C0.575,-0.639 0.597,-0.618 0.615,-0.593C0.633,-0.569 0.647,-0.542 0.657,-0.511L0.521,-0.466C0.517,-0.479 0.511,-0.492 0.502,-0.506C0.494,-0.52 0.483,-0.532 0.47,-0.544C0.457,-0.555 0.442,-0.564 0.425,-0.571C0.407,-0.578 0.388,-0.582 0.366,-0.582C0.334,-0.582 0.306,-0.575 0.283,-0.562C0.26,-0.549 0.242,-0.532 0.227,-0.51C0.212,-0.488 0.202,-0.464 0.195,-0.436C0.188,-0.409 0.184,-0.381 0.184,-0.352L0.184,-0.348C0.184,-0.319 0.188,-0.291 0.195,-0.263C0.202,-0.236 0.212,-0.211 0.227,-0.19C0.242,-0.168 0.26,-0.151 0.283,-0.138C0.306,-0.125 0.334,-0.118 0.366,-0.118C0.388,-0.118 0.407,-0.122 0.425,-0.129C0.442,-0.136 0.457,-0.145 0.47,-0.156C0.483,-0.168 0.494,-0.18 0.502,-0.194C0.511,-0.208 0.517,-0.221 0.521,-0.234L0.657,-0.189C0.647,-0.159 0.633,-0.131 0.615,-0.107C0.597,-0.083 0.575,-0.062 0.551,-0.044C0.526,-0.027 0.498,-0.013 0.467,-0.004C0.435,0.005 0.402,0.01 0.365,0.01C0.315,0.01 0.269,0 0.229,-0.018C0.189,-0.037 0.154,-0.062 0.126,-0.095C0.098,-0.127 0.076,-0.165 0.061,-0.209C0.046,-0.253 0.038,-0.3 0.038,-0.35Z" style="fill-rule:nonzero;"/>
                    </g>
                    <path d="M3164.58,354.927C3164.89,354.171 3165.16,353.395 3165.39,352.599C3165.99,350.535 3166.29,348.446 3166.29,346.334C3166.29,342.566 3165.53,339.152 3164.11,336.071C3162.65,332.907 3160.62,330.215 3158.03,327.984C3155.61,325.909 3152.79,324.282 3149.53,323.16C3146.55,322.135 3143.33,321.593 3139.85,321.593L3116.71,321.593C3110.56,321.593 3105.57,326.581 3105.57,332.736L3105.57,384.736C3105.57,390.89 3110.56,395.879 3116.71,395.879L3139.48,395.879C3143,395.879 3146.35,395.455 3149.51,394.634C3153.23,393.67 3156.46,392.144 3159.23,390.138C3162.33,387.896 3164.8,385.05 3166.63,381.578C3168.4,378.208 3169.41,374.227 3169.41,369.578C3169.41,365.608 3168.62,362.247 3167.29,359.441C3166.51,357.768 3165.6,356.267 3164.58,354.927ZM3139.85,332.736C3142.02,332.736 3144.04,333.056 3145.9,333.697C3147.76,334.337 3149.38,335.25 3150.76,336.434C3152.14,337.619 3153.21,339.051 3153.99,340.731C3154.76,342.412 3155.15,344.279 3155.15,346.334C3155.15,347.398 3155,348.449 3154.7,349.489C3154.39,350.528 3153.95,351.501 3153.37,352.408C3152.79,353.314 3152.09,354.142 3151.27,354.892C3150.45,355.641 3149.52,356.258 3148.48,356.741C3149.32,357.031 3150.31,357.467 3151.43,358.047C3152.56,358.627 3153.62,359.425 3154.64,360.44C3155.66,361.455 3156.51,362.706 3157.22,364.193C3157.92,365.68 3158.27,367.475 3158.27,369.578C3158.27,372.213 3157.76,374.486 3156.76,376.395C3155.76,378.305 3154.41,379.877 3152.7,381.11C3151,382.342 3149,383.255 3146.72,383.847C3144.43,384.44 3142.02,384.736 3139.48,384.736L3116.71,384.736L3116.71,332.736L3139.85,332.736ZM3147.5,369.216C3147.5,367.813 3147.24,366.665 3146.74,365.771C3146.23,364.876 3145.56,364.163 3144.72,363.631C3143.89,363.099 3142.94,362.731 3141.88,362.525C3140.81,362.32 3139.72,362.217 3138.61,362.217L3127.23,362.217L3127.23,376.432L3138.61,376.432C3139.72,376.432 3140.81,376.323 3141.88,376.105C3142.94,375.888 3143.89,375.501 3144.72,374.945C3145.56,374.389 3146.23,373.652 3146.74,372.733C3147.24,371.814 3147.5,370.642 3147.5,369.216ZM3144.56,347.386C3144.56,345.403 3143.93,343.856 3142.67,342.744C3141.42,341.632 3139.39,341.076 3136.58,341.076L3127.23,341.076L3127.23,353.333L3136.58,353.333C3139.34,353.333 3141.36,352.807 3142.64,351.755C3143.92,350.704 3144.56,349.247 3144.56,347.386Z" style="fill:#fff;"/>
                    <path d="M3222.24,358.743L3226.45,357.34C3229.27,356.4 3231.6,354.371 3232.91,351.704C3234.23,349.038 3234.43,345.956 3233.46,343.144C3232.31,339.799 3230.73,336.785 3228.75,334.087C3226.69,331.271 3224.22,328.867 3221.35,326.876C3218.57,324.954 3215.46,323.451 3212,322.4C3208.7,321.397 3205.11,320.867 3201.24,320.867C3195.75,320.867 3190.82,321.95 3186.43,323.986C3181.98,326.051 3178.2,328.882 3175.08,332.454C3172.06,335.911 3169.71,339.96 3168.1,344.633C3166.58,349.017 3165.8,353.716 3165.8,358.736C3165.8,363.791 3166.59,368.499 3168.1,372.869C3169.71,377.511 3172.05,381.55 3175.06,385.015C3178.2,388.621 3181.99,391.463 3186.47,393.519C3190.85,395.532 3195.76,396.604 3201.24,396.604C3205.09,396.604 3208.66,396.086 3211.95,395.105C3215.45,394.062 3218.59,392.544 3221.39,390.586C3224.24,388.587 3226.7,386.186 3228.75,383.384C3230.73,380.687 3232.31,377.672 3233.46,374.328C3234.43,371.51 3234.23,368.421 3232.91,365.751C3231.58,363.081 3229.24,361.053 3226.41,360.12L3222.24,358.743ZM3176.95,359.19C3176.99,362.765 3177.55,366.107 3178.63,369.216C3179.75,372.455 3181.37,375.283 3183.47,377.701C3185.57,380.118 3188.12,382.016 3191.12,383.394C3194.12,384.772 3197.49,385.461 3201.24,385.461C3203.95,385.461 3206.45,385.117 3208.76,384.428C3211.07,383.739 3213.15,382.747 3215,381.454C3216.85,380.161 3218.44,378.607 3219.77,376.794C3221.1,374.981 3222.15,372.951 3222.92,370.702L3212.81,367.366C3212.51,368.333 3212.06,369.324 3211.43,370.34C3210.8,371.355 3210,372.28 3209.03,373.114C3208.07,373.948 3206.94,374.631 3205.64,375.163C3204.35,375.694 3202.91,375.96 3201.31,375.96C3198.92,375.96 3196.87,375.471 3195.16,374.492C3193.46,373.513 3192.06,372.225 3190.98,370.63C3189.89,369.034 3189.08,367.215 3188.56,365.172C3188.04,363.129 3187.78,361.032 3187.78,358.881L3187.78,358.591C3187.78,356.463 3188.04,354.378 3188.56,352.335C3189.08,350.293 3189.89,348.467 3190.98,346.86C3192.06,345.252 3193.46,343.959 3195.16,342.98C3196.87,342.001 3198.92,341.511 3201.31,341.511C3202.91,341.511 3204.35,341.777 3205.64,342.309C3206.94,342.841 3208.07,343.524 3209.03,344.358C3210,345.192 3210.8,346.122 3211.43,347.15C3212.06,348.177 3212.51,349.175 3212.81,350.142L3222.92,346.769C3222.15,344.521 3221.1,342.49 3219.77,340.677C3218.44,338.864 3216.85,337.317 3215,336.036C3213.15,334.754 3211.07,333.763 3208.76,333.062C3206.45,332.361 3203.95,332.01 3201.24,332.01C3197.49,332.01 3194.12,332.705 3191.12,334.095C3188.12,335.486 3185.57,337.383 3183.47,339.789C3181.37,342.194 3179.75,345.023 3178.63,348.274C3177.5,351.526 3176.94,355.013 3176.94,358.736L3176.95,358.902L3176.64,358.599L3176.65,358.891L3176.95,359.19ZM3205.74,358.754C3204.04,357.36 3202.77,355.482 3202.13,353.343C3202.09,353.216 3202.01,353.1 3201.92,352.965C3201.88,352.899 3201.82,352.85 3201.76,352.796C3201.66,352.713 3201.53,352.668 3201.41,352.615C3201.38,352.602 3201.35,352.654 3201.31,352.654C3201.09,352.654 3200.88,352.55 3200.72,352.642C3200.51,352.76 3200.34,352.911 3200.2,353.105C3199.81,353.682 3199.55,354.349 3199.36,355.083C3199.07,356.228 3198.93,357.398 3198.93,358.591L3198.93,358.599C3198.93,358.702 3198.91,358.814 3198.87,358.934L3198.93,358.881C3198.93,360.093 3199.07,361.274 3199.36,362.425C3199.55,363.142 3199.8,363.792 3200.18,364.352C3200.32,364.553 3200.5,364.707 3200.72,364.829C3200.88,364.922 3201.09,364.817 3201.31,364.817C3201.35,364.817 3201.38,364.869 3201.41,364.857C3201.53,364.804 3201.66,364.759 3201.76,364.676C3201.83,364.612 3201.91,364.552 3201.95,364.474C3202.02,364.363 3202.1,364.27 3202.13,364.164C3202.77,362.026 3204.04,360.147 3205.74,358.754Z" style="fill:#fff;"/>
                    <path d="M3265.54,384.874L3268.94,390.502C3270.96,393.84 3274.58,395.879 3278.48,395.879L3290.04,395.879C3296.2,395.879 3301.19,390.89 3301.19,384.736L3301.19,332.736C3301.19,326.581 3296.2,321.593 3290.04,321.593L3279.53,321.593C3274.85,321.593 3270.85,324.474 3269.2,328.56L3268.28,327.03C3266.28,323.658 3262.64,321.593 3258.71,321.593L3243.88,321.593C3237.73,321.593 3232.74,326.581 3232.74,332.736L3232.74,384.736C3232.74,390.89 3237.73,395.879 3243.88,395.879L3254.4,395.879C3260.51,395.879 3265.47,390.964 3265.54,384.874ZM3254.4,344.92L3254.4,384.736L3243.88,384.736L3243.88,332.736L3258.71,332.736L3279.53,367.656L3279.53,332.736L3290.04,332.736L3290.04,384.736L3278.48,384.736L3254.4,344.92Z" style="fill:#fff;"/>
                    <path d="M3356.99,358.743L3361.2,357.34C3364.02,356.4 3366.35,354.371 3367.66,351.704C3368.98,349.038 3369.18,345.956 3368.21,343.144C3367.06,339.799 3365.48,336.785 3363.5,334.087C3361.44,331.271 3358.97,328.867 3356.1,326.876C3353.32,324.954 3350.21,323.451 3346.75,322.4C3343.45,321.397 3339.86,320.867 3335.99,320.867C3330.5,320.867 3325.57,321.95 3321.18,323.986C3316.73,326.051 3312.95,328.882 3309.83,332.454C3306.81,335.911 3304.46,339.96 3302.85,344.633C3301.33,349.017 3300.55,353.716 3300.55,358.736C3300.55,363.791 3301.34,368.499 3302.85,372.869C3304.46,377.511 3306.8,381.55 3309.81,385.015C3312.95,388.621 3316.75,391.463 3321.22,393.519C3325.6,395.532 3330.51,396.604 3335.99,396.604C3339.84,396.604 3343.41,396.086 3346.7,395.105C3350.2,394.062 3353.34,392.544 3356.14,390.586C3358.99,388.587 3361.45,386.186 3363.5,383.384C3365.48,380.687 3367.06,377.672 3368.21,374.328C3369.18,371.51 3368.98,368.421 3367.66,365.751C3366.33,363.081 3363.99,361.053 3361.16,360.12L3356.99,358.743ZM3311.7,359.19C3311.74,362.765 3312.3,366.107 3313.38,369.216C3314.5,372.455 3316.12,375.283 3318.22,377.701C3320.32,380.118 3322.87,382.016 3325.87,383.394C3328.87,384.772 3332.24,385.461 3335.99,385.461C3338.7,385.461 3341.2,385.117 3343.51,384.428C3345.82,383.739 3347.9,382.747 3349.75,381.454C3351.6,380.161 3353.19,378.607 3354.52,376.794C3355.85,374.981 3356.9,372.951 3357.67,370.702L3347.56,367.366C3347.27,368.333 3346.81,369.324 3346.18,370.34C3345.55,371.355 3344.75,372.28 3343.78,373.114C3342.82,373.948 3341.69,374.631 3340.39,375.163C3339.1,375.694 3337.66,375.96 3336.06,375.96C3333.67,375.96 3331.62,375.471 3329.91,374.492C3328.21,373.513 3326.81,372.225 3325.73,370.63C3324.64,369.034 3323.84,367.215 3323.32,365.172C3322.8,363.129 3322.53,361.032 3322.53,358.881L3322.53,358.591C3322.53,356.463 3322.8,354.378 3323.32,352.335C3323.84,350.293 3324.64,348.467 3325.73,346.86C3326.81,345.252 3328.21,343.959 3329.91,342.98C3331.62,342.001 3333.67,341.511 3336.06,341.511C3337.66,341.511 3339.1,341.777 3340.39,342.309C3341.69,342.841 3342.82,343.524 3343.78,344.358C3344.75,345.192 3345.55,346.122 3346.18,347.15C3346.81,348.177 3347.27,349.175 3347.56,350.142L3357.67,346.769C3356.9,344.521 3355.85,342.49 3354.52,340.677C3353.19,338.864 3351.6,337.317 3349.75,336.036C3347.9,334.754 3345.82,333.763 3343.51,333.062C3341.2,332.361 3338.7,332.01 3335.99,332.01C3332.24,332.01 3328.87,332.705 3325.87,334.095C3322.87,335.486 3320.32,337.383 3318.22,339.789C3316.12,342.194 3314.5,345.023 3313.38,348.274C3312.26,351.526 3311.69,355.013 3311.69,358.736L3311.7,358.902L3311.39,358.599L3311.4,358.891L3311.7,359.19ZM3340.49,358.754C3338.79,357.36 3337.53,355.482 3336.88,353.343C3336.85,353.216 3336.76,353.1 3336.67,352.965C3336.63,352.899 3336.57,352.85 3336.51,352.796C3336.41,352.713 3336.28,352.668 3336.16,352.615C3336.13,352.602 3336.1,352.654 3336.06,352.654C3335.84,352.654 3335.63,352.55 3335.47,352.642C3335.26,352.76 3335.09,352.911 3334.95,353.105C3334.56,353.682 3334.3,354.349 3334.11,355.083C3333.82,356.228 3333.68,357.398 3333.68,358.591L3333.68,358.881C3333.68,360.093 3333.82,361.274 3334.11,362.425C3334.3,363.142 3334.55,363.792 3334.93,364.352C3335.07,364.553 3335.25,364.707 3335.47,364.829C3335.63,364.922 3335.84,364.817 3336.06,364.817C3336.1,364.817 3336.13,364.869 3336.16,364.857C3336.28,364.804 3336.41,364.759 3336.51,364.676C3336.58,364.612 3336.66,364.552 3336.7,364.474C3336.77,364.363 3336.85,364.27 3336.88,364.164C3337.53,362.026 3338.79,360.147 3340.49,358.754Z" style="fill:#fff;"/>
                </g>
            </g>
        </g>
    </g>
</svg>
