<?xml version="1.0" standalone="no"?>
<!DOCTYPE svg PUBLIC "-//W3C//DTD SVG 20010904//EN"
 "http://www.w3.org/TR/2001/REC-SVG-20010904/DTD/svg10.dtd">
<svg version="1.0" xmlns="http://www.w3.org/2000/svg"
 width="520.000000pt" height="520.000000pt" viewBox="0 0 520.000000 520.000000"
 preserveAspectRatio="xMidYMid meet">
<metadata>
Created by potrace 1.14, written by Peter Selinger 2001-2017
</metadata>
<g transform="translate(0.000000,520.000000) scale(0.100000,-0.100000)"
fill="#000000" stroke="none">
<path d="M3018 4385 c-215 -49 -429 -186 -554 -357 l-35 -47 -417 -3 -417 -3
-58 -27 c-128 -60 -163 -104 -258 -326 -59 -138 -70 -157 -92 -160 -23 -3 -25
1 -29 49 -4 42 -11 58 -33 77 -26 22 -35 24 -125 20 -89 -3 -100 -5 -134 -32
-51 -39 -82 -107 -66 -146 7 -16 19 -32 28 -37 10 -4 94 -10 187 -13 l170 -5
-106 -52 c-116 -57 -152 -90 -169 -154 -7 -27 -10 -157 -8 -377 3 -320 4 -339
24 -377 12 -23 24 -69 27 -110 12 -125 54 -155 223 -155 61 0 126 3 144 6 45
10 100 67 100 104 l0 30 710 0 710 0 0 -21 c0 -36 33 -78 75 -99 57 -28 262
-29 315 -2 53 26 80 74 80 141 0 40 7 70 25 105 16 31 25 66 25 95 l0 46 78
18 c87 19 253 97 325 152 26 20 47 39 47 43 -1 4 -25 33 -53 64 l-53 57 -63
-44 c-305 -212 -730 -166 -988 107 -135 144 -202 317 -203 521 -1 392 277 706
669 758 109 15 228 3 340 -36 234 -79 421 -279 486 -519 18 -67 19 -68 48 -62
16 3 53 6 82 6 l53 0 -15 68 c-72 323 -337 594 -672 688 -82 23 -337 28 -423
9z m-720 -732 c-10 -49 -18 -127 -18 -175 l0 -88 -505 0 -504 0 33 79 c61 142
89 183 153 222 75 47 88 48 484 49 l375 0 -18 -87z m-1070 -447 c53 -18 156
-48 227 -66 72 -18 133 -36 138 -40 12 -10 -77 -50 -111 -50 -36 0 -305 28
-339 36 -21 4 -23 10 -23 79 0 41 2 75 5 75 3 0 50 -15 103 -34z m446 -495 c4
-6 5 -11 1 -11 -10 0 -45 90 -44 113 0 12 9 -3 18 -34 10 -31 21 -61 25 -68z
m856 100 c0 -56 -43 -113 -105 -142 -36 -17 -68 -19 -295 -19 -228 0 -259 2
-296 19 -50 23 -93 76 -101 125 l-6 36 402 0 c390 0 401 -1 401 -19z m70 -100
c-11 -22 -25 -43 -32 -47 -8 -5 -7 1 3 16 9 14 21 35 28 48 6 12 14 22 17 22
2 0 -5 -18 -16 -39z"/>
<path d="M3175 4010 c-159 -34 -238 -135 -251 -323 l-7 -97 -38 0 -39 0 0 -85
0 -85 40 0 40 0 0 -105 0 -105 -40 0 -40 0 0 -90 0 -90 345 0 345 0 0 90 0 90
-200 0 -200 0 0 105 0 105 95 0 95 0 0 85 0 85 -94 0 -94 0 -7 36 c-8 43 2
108 21 146 24 46 57 61 119 56 46 -4 62 -10 89 -37 22 -22 39 -31 48 -25 10 6
102 73 137 101 2 2 -2 15 -10 29 -16 31 -84 80 -137 98 -50 18 -167 27 -217
16z"/>
</g>
</svg>
